<?xml version="1.0" standalone="no"?>
<!DOCTYPE svg PUBLIC "-//W3C//DTD SVG 1.1//EN" "http://www.w3.org/Graphics/SVG/1.1/DTD/svg11.dtd" >
<!--
2013-9-30: Created.
-->
<svg>
<metadata>
Created by iconfont
</metadata>
<defs>

<font id="iconfont" horiz-adv-x="1024" >
  <font-face
    font-family="iconfont"
    font-weight="500"
    font-stretch="normal"
    units-per-em="1024"
    ascent="896"
    descent="-128"
  />
    <missing-glyph />
    
    <glyph glyph-name="arrowUp" unicode="&#58965;" d="M959.697485 343.14961700000003L512.001023 793.308153 64.302515 343.14961700000003 327.791581 343.14961700000003 327.791581-25.308152999999947 696.207395-25.308152999999947 696.207395 343.14961700000003Z"  horiz-adv-x="1024" />

    
    <glyph glyph-name="arrowRight" unicode="&#58927;" d="M552.18 542.69H65.583v-325.46H552.18v-183.778L960.744 383.94000000000005 552.18 734.424V542.69z m0 0"  horiz-adv-x="1024" />

    
    <glyph glyph-name="arrowLeft" unicode="&#58928;" d="M474.147 542.69h486.596v-325.46H474.147v-183.778L65.584 383.94000000000005l408.564 350.485V542.69z m0 0"  horiz-adv-x="1024" />

    
    <glyph glyph-name="add-o" unicode="&#59039;" d="M512 384V736a32 32 0 0 0 64 0V384h352a32 32 0 1 0 0-64H576v-352a32 32 0 1 0-64 0V320H160a32 32 0 0 0 0 64H512z"  horiz-adv-x="1024" />

    
    <glyph glyph-name="cAdd-o" unicode="&#59040;" d="M480 0a352 352 0 1 1 0 704 352 352 0 0 1 0-704zM448 384H288a32 32 0 0 1 0-64H448v-160a32 32 0 1 1 64 0V320h160a32 32 0 1 1 0 64H512V544a32 32 0 0 1-64 0V384z m32-448a416 416 0 1 0 0 832 416 416 0 0 0 0-832z"  horiz-adv-x="1024" />

    
    <glyph glyph-name="preview-o" unicode="&#59041;" d="M512 192c96.64 0 216.256 62.912 356.032 192.32C730.368 513.344 610.88 576 512 576s-218.368-62.656-356.032-191.68C295.68 254.912 415.36 192 512 192z m0-64c-127.744 0-277.12 85.312-448 256 168.256 170.688 317.568 256 448 256 130.432 0 279.744-85.312 448-256-170.88-170.688-320.256-256-448-256z m0 128a128 128 0 1 0 0 256 128 128 0 0 0 0-256z m0 64a64 64 0 1 1 0 128 64 64 0 0 1 0-128z"  horiz-adv-x="1024" />

    
    <glyph glyph-name="sign-o" unicode="&#59042;" d="M128 256h704V320h-128V704h128V768H128v-64h128v-384H128v-64z m384-64v-224a32 32 0 1 0-64 0V192H64V320a64 64 0 0 0 64 64h64V640H128a64 64 0 0 0-64 64V832h832v-128a64 64 0 0 0-64-64h-64v-256h64a64 64 0 0 0 64-64v-128H512z"  horiz-adv-x="1024" />

    
    <glyph glyph-name="cMinus-o" unicode="&#59043;" d="M480-96a448 448 0 1 0 0 896 448 448 0 0 0 0-896zM288 384a32 32 0 0 1 0-64h384a32 32 0 1 1 0 64h-384z m192-416a384 384 0 1 1 0 768 384 384 0 0 1 0-768z"  horiz-adv-x="1024" />

    
    <glyph glyph-name="arrowCR-o" unicode="&#59044;" d="M512 0A384 384 0 1 0 512 768a384 384 0 0 0 0-768z m0-64A448 448 0 1 1 512 832a448 448 0 0 1 0-896zM559.104 384.192L400.64 225.792a32 32 0 0 1 45.248-45.248l181.056 180.992a32 32 0 0 1 0 45.248L445.952 587.84a32 32 0 1 1-45.248-45.312l158.4-158.336z"  horiz-adv-x="1024" />

    
    <glyph glyph-name="readLater-o" unicode="&#59045;" d="M704 749.952c0 11.584-0.128 15.68-0.448 17.6A143.872 143.872 0 0 1 685.952 768H146.048c-11.584 0-15.68-0.128-17.6-0.448-0.32-1.92-0.448-6.016-0.448-17.6v-731.904c0-11.584 0.128-15.68 0.448-17.6 1.92-0.32 6.016-0.448 17.6-0.448h323.392A288.128 288.128 0 0 0 704 442.752v307.2z m0.896 17.152l-0.192 0.064h0.192z m-577.856 0l0.256 0.128-0.256-0.128z m0-766.208l0.256-0.064h-0.192zM768 371.84A224 224 0 1 1 664.448-64h-518.4c-28.544 0-38.848 2.944-49.28 8.576a58.176 58.176 0 0 0-24.192 24.192c-5.632 10.432-8.576 20.736-8.576 49.28V749.952c0 28.544 2.944 38.848 8.576 49.28a58.176 58.176 0 0 0 24.192 24.192c10.432 5.632 20.736 8.576 49.28 8.576h539.904c28.544 0 38.848-2.944 49.28-8.576 10.432-5.568 18.624-13.76 24.192-24.192 5.632-10.432 8.576-20.736 8.576-49.28V371.84zM224 704a32 32 0 0 1 0-64h384a32 32 0 0 1 0 64h-384z m0-192a32 32 0 0 1 0-64h256a32 32 0 0 1 0 64h-256z m590.784-489.344a160 160 0 1 0 42.112 48.384l132.8-132.736a32 32 0 0 0-45.312-45.312l-129.6 129.664z m-29.44 59.136A96 96 0 1 1 649.6 217.6a96 96 0 0 1 135.744-135.68z"  horiz-adv-x="1024" />

    
    <glyph glyph-name="arrowDL-o" unicode="&#59046;" d="M201.344 377.856l316.8 316.8a32 32 0 1 0 45.248-45.312L269.248 355.2l294.144-294.144a32 32 0 0 0-45.248-45.248l-316.8 316.8a32 32 0 0 0 0 45.248zM457.344 377.856l316.8 316.8a32 32 0 1 0 45.248-45.312L525.248 355.2l294.144-294.144a32 32 0 1 0-45.248-45.248l-316.8 316.8a32 32 0 0 0 0 45.248z"  horiz-adv-x="1024" />

    
    <glyph glyph-name="arrowD-o" unicode="&#59047;" d="M532.992 174.208l316.8 316.8a32 32 0 1 1-45.248 45.248l-294.144-294.208L216.256 536.32a32 32 0 1 1-45.248-45.248l316.8-316.8a32 32 0 0 1 45.184 0z"  horiz-adv-x="1024" />

    
    <glyph glyph-name="arrowCL-o" unicode="&#59048;" d="M512 0A384 384 0 1 1 512 768a384 384 0 0 1 0-768z m0-64A448 448 0 1 0 512 832a448 448 0 0 0 0-896zM464.896 384.192l158.4-158.4a32 32 0 0 0-45.248-45.248L396.992 361.536a32 32 0 0 0 0 45.248l181.056 181.056a32 32 0 1 0 45.248-45.312L464.896 384.192z"  horiz-adv-x="1024" />

    
    <glyph glyph-name="arrowDR-o" unicode="&#59049;" d="M822.656 377.856l-316.8 316.8a32 32 0 1 1-45.248-45.312l294.144-294.144-294.144-294.144a32 32 0 0 1 45.248-45.248l316.8 316.8a32 32 0 0 1 0 45.248zM566.656 377.856l-316.8 316.8a32 32 0 1 1-45.248-45.312L498.752 355.2l-294.144-294.144a32 32 0 1 1 45.248-45.248l316.8 316.8a32 32 0 0 1 0 45.248z"  horiz-adv-x="1024" />

    
    <glyph glyph-name="arrowR-o" unicode="&#59050;" d="M691.392 332.608l-316.8-316.8a32 32 0 1 0-45.248 45.248L623.552 355.2 329.344 649.344a32 32 0 1 0 45.312 45.312l316.8-316.8a32 32 0 0 0 0-45.248z"  horiz-adv-x="1024" />

    
    <glyph glyph-name="arrowU-o" unicode="&#59051;" d="M532.992 536.256l316.8-316.8a32 32 0 1 0-45.248-45.248L510.4 468.352l-294.144-294.144a32 32 0 1 0-45.248 45.248l316.8 316.8a32 32 0 0 0 45.184 0z"  horiz-adv-x="1024" />

    
    <glyph glyph-name="arrowL-o" unicode="&#59052;" d="M329.344 332.608l316.8-316.8a32 32 0 1 1 45.248 45.248L397.248 355.2l294.144 294.144a32 32 0 1 1-45.248 45.312l-316.8-316.8a32 32 0 0 1 0-45.248z"  horiz-adv-x="1024" />

    
    <glyph glyph-name="batch-o" unicode="&#59053;" d="M228.096 576h503.808c57.088 0 77.76-5.952 98.56-17.088 20.928-11.136 37.312-27.52 48.448-48.384 11.136-20.864 17.088-41.6 17.088-98.56v-311.872c0-57.088-5.952-77.76-17.088-98.56-11.136-20.928-27.52-37.312-48.384-48.448-20.864-11.136-41.6-17.088-98.56-17.088H228.032c-57.088 0-77.76 5.952-98.56 17.088a116.288 116.288 0 0 0-48.448 48.384c-11.136 20.864-17.088 41.6-17.088 98.56V411.968c0 57.088 5.952 77.76 17.088 98.56 11.136 20.928 27.52 37.312 48.384 48.448 20.864 11.136 41.6 17.088 98.56 17.088z m-18.048-64c-28.544 0-38.848-2.944-49.28-8.576a58.176 58.176 0 0 1-24.192-24.192c-5.632-10.432-8.576-20.736-8.576-49.28v-347.904c0-28.544 2.944-38.848 8.576-49.28 5.568-10.432 13.76-18.624 24.192-24.192 10.432-5.632 20.736-8.576 49.28-8.576h539.904c28.544 0 38.848 2.944 49.28 8.576a58.176 58.176 0 0 1 24.192 24.192c5.632 10.432 8.576 20.736 8.576 49.28V429.952c0 28.544-2.944 38.848-8.576 49.28a58.176 58.176 0 0 1-24.192 24.192c-10.432 5.632-20.736 8.576-49.28 8.576H210.048zM224 832h512a32 32 0 1 0 0-64h-512a32 32 0 0 0 0 64z m-64-128h640a32 32 0 1 0 0-64h-640a32 32 0 0 0 0 64z m272.384-554.88l214.144 224.576a32.576 32.576 0 0 0 47.616 0 36.48 36.48 0 0 0 0-49.92l-237.952-249.472a32.576 32.576 0 0 0-47.552 0L265.856 224a36.48 36.48 0 0 0 0 49.92 32.576 32.576 0 0 0 47.616 0l118.912-124.8z"  horiz-adv-x="1024" />

    
    <glyph glyph-name="backlog-o" unicode="&#59054;" d="M331.328 759.552A128 128 0 0 0 209.856 672H192V0h640V672h-17.92a128 128 0 0 0-121.408 87.552l-1.408 4.224A6.208 6.208 0 0 1 685.44 768H338.624a6.208 6.208 0 0 1-5.888-4.224l-1.408-4.224z m-60.8 20.224l1.472 4.224C281.6 812.672 308.352 832 338.56 832h346.88c30.208 0 56.96-19.328 66.56-48l1.408-4.224a64 64 0 0 1 60.736-43.776H832c32.768 0 64-28.672 64-64V0c0-35.328-31.232-64-64-64H192c-32.768 0-64 28.672-64 64V672c0 35.328 31.232 64 64 64h17.92a64 64 0 0 1 60.672 43.776zM498.752 261.504l158.4 158.4a32 32 0 1 0 45.248-45.248l-181.056-181.056a31.872 31.872 0 0 0-45.248 0L385.6 284.16a32 32 0 1 0 45.248 45.248l67.84-67.84zM401.152 576a128 128 0 1 0 221.76 0h49.088a32 32 0 1 0 0-64h-320a32 32 0 0 0 0 64h49.152zM512 576a64 64 0 1 1 0 128 64 64 0 0 1 0-128z m-224-448h448a32 32 0 1 0 0-64h-448a32 32 0 1 0 0 64z"  horiz-adv-x="1024" />

    
    <glyph glyph-name="bondE-o" unicode="&#59055;" d="M232 448v-51.2h560V448h3.904c57.088 0 77.76-5.952 98.56-17.088 20.928-11.136 37.312-27.52 48.448-48.384 11.136-20.864 17.088-41.6 17.088-98.56v-183.872c0-57.088-5.952-77.76-17.088-98.56-11.136-20.928-27.52-37.312-48.384-48.448-20.864-11.136-41.6-17.088-98.56-17.088H228.032c-57.088 0-77.76 5.952-98.56 17.088a116.288 116.288 0 0 0-48.448 48.384c-11.136 20.864-17.088 41.6-17.088 98.56V283.968c0 57.088 5.952 77.76 17.088 98.56 11.136 20.928 27.52 37.312 48.384 48.448 20.864 11.136 41.6 17.088 98.56 17.088h3.968z m-29.952-51.2c-28.544 0-38.848-2.944-49.28-8.576a58.176 58.176 0 0 1-24.192-24.192c-5.632-10.432-8.576-20.736-8.576-49.28v-245.504c0-28.544 2.944-38.848 8.576-49.28 5.568-10.432 13.76-18.624 24.192-24.192 10.432-5.632 20.736-8.576 49.28-8.576h619.904c28.544 0 38.848 2.944 49.28 8.576a58.176 58.176 0 0 1 24.192 24.192c5.632 10.432 8.576 20.736 8.576 49.28V314.752c0 28.544-2.944 38.848-8.576 49.28a58.176 58.176 0 0 1-24.192 24.192c-10.432 5.632-20.736 8.576-49.28 8.576H202.048z m464.448 227.648c-29.184 29.184-39.68 72.832-30.976 119.424-19.712 10.752-49.216 4.096-70.848-17.6L383.68 545.28c-21.632-21.632-28.352-51.2-17.6-70.848 46.592 8.704 90.24-1.792 119.424-30.976 29.184-29.184 39.68-72.768 30.976-119.424 19.712-10.752 49.216-4.032 70.848 17.6l180.992 180.992c21.632 21.696 28.352 51.2 17.6 70.848-46.592-8.704-90.24 1.792-119.424 30.976z m158.4 22.656c37.504-37.504 27.392-108.416-22.592-158.4L621.248 307.712c-49.92-49.984-120.896-60.16-158.4-22.656l-9.088 9.088c15.36 38.784 11.584 78.912-13.504 104.064-25.152 25.088-65.28 28.8-104.064 13.504l-9.088 9.088c-37.504 37.504-27.392 108.416 22.592 158.4L530.752 760.32c49.92 49.92 120.896 60.096 158.4 22.592l9.088-9.088c-15.36-38.784-11.584-78.912 13.504-104.064 25.152-25.088 65.28-28.8 104.064-13.504l9.088-9.088zM455.872 543.168L566.784 654.08a24 24 0 0 0 33.92-33.92L489.856 509.184a24 24 0 1 0-33.92 33.92z m101.824-101.76l110.912 110.848a24 24 0 0 0 33.92-33.92L591.68 407.36a24 24 0 0 0-33.92 33.92zM288 256h448a32 32 0 1 0 0-64h-448a32 32 0 1 0 0 64z"  horiz-adv-x="1024" />

    
    <glyph glyph-name="bondIssue-o" unicode="&#59056;" d="M64 328h56.96c27.392-189.952 192-336 391.04-336 199.04 0 363.648 146.048 391.04 336H960C932.224 107.008 742.208-64 512-64s-420.224 171.008-448 392z m0 112C91.776 660.992 281.792 832 512 832s420.224-171.008 448-392h-56.96c-27.392 189.952-192 336-391.04 336-199.04 0-363.648-146.048-391.04-336H64zM640 384c0 55.04 23.424 106.048 62.528 141.76A64 64 0 0 1 640 576H384a64 64 0 0 1-62.528-50.24 191.744 191.744 0 0 0 0-283.52A64 64 0 0 1 384 192h256a64 64 0 0 1 62.528 50.24A191.744 191.744 0 0 0 640 384z m128-128a128 128 0 0 0-128-128H384a128 128 0 0 0-128 128v17.152a128 128 0 0 1 0 221.696V512a128 128 0 0 0 128 128h256a128 128 0 0 0 128-128v-17.152a128 128 0 0 1 0-221.696V256zM416 512h192a32 32 0 0 0 0-64h-192a32 32 0 0 0 0 64z m0-192h192a32 32 0 0 0 0-64h-192a32 32 0 0 0 0 64z"  horiz-adv-x="1024" />

    
    <glyph glyph-name="BTop-o" unicode="&#59057;" d="M512 0A384 384 0 1 1 512 768a384 384 0 0 1 0-768z m0-64A448 448 0 1 0 512 832a448 448 0 0 0 0-896zM256 576l512 0 0-64-512 0 0 64ZM534.656 440.96l226.24-226.304a32 32 0 0 0-45.248-45.312L512 372.992l-203.648-203.648a32 32 0 0 0-45.248 45.312l226.24 226.24a32 32 0 0 0 45.312 0z"  horiz-adv-x="1024" />

    
    <glyph glyph-name="close-o" unicode="&#59058;" d="M522.048 409.856l339.392 339.392a32 32 0 0 0 45.248-45.248L567.296 364.608l339.392-339.456a32 32 0 0 0-45.248-45.248L522.048 319.36l-339.392-339.456a32 32 0 0 0-45.312 45.248L476.8 364.608 137.344 704a32 32 0 1 0 45.312 45.248l339.392-339.392z"  horiz-adv-x="1024" />

    
    <glyph glyph-name="bDownload-o" unicode="&#59113;" d="M512 172.288l80.192 80.192a32 32 0 1 0 45.248-45.248l-135.744-135.744a32 32 0 0 0-45.312 0l-135.68 135.744a32 32 0 0 0 45.184 45.248L448 170.368V416a32 32 0 0 0 64 0v-243.712zM228.096 576h503.808c57.088 0 77.76-5.952 98.56-17.088 20.928-11.136 37.312-27.52 48.448-48.384 11.136-20.864 17.088-41.6 17.088-98.56v-311.872c0-57.088-5.952-77.76-17.088-98.56-11.136-20.928-27.52-37.312-48.384-48.448-20.864-11.136-41.6-17.088-98.56-17.088H228.032c-57.088 0-77.76 5.952-98.56 17.088a116.288 116.288 0 0 0-48.448 48.384c-11.136 20.864-17.088 41.6-17.088 98.56V411.968c0 57.088 5.952 77.76 17.088 98.56 11.136 20.928 27.52 37.312 48.384 48.448 20.864 11.136 41.6 17.088 98.56 17.088z m-18.048-64c-28.544 0-38.848-2.944-49.28-8.576a58.176 58.176 0 0 1-24.192-24.192c-5.632-10.432-8.576-20.736-8.576-49.28v-347.904c0-28.544 2.944-38.848 8.576-49.28 5.568-10.432 13.76-18.624 24.192-24.192 10.432-5.632 20.736-8.576 49.28-8.576h539.904c28.544 0 38.848 2.944 49.28 8.576a58.176 58.176 0 0 1 24.192 24.192c5.632 10.432 8.576 20.736 8.576 49.28V429.952c0 28.544-2.944 38.848-8.576 49.28a58.176 58.176 0 0 1-24.192 24.192c-10.432 5.632-20.736 8.576-49.28 8.576H210.048zM224 832h512a32 32 0 1 0 0-64h-512a32 32 0 0 0 0 64z m-64-128h640a32 32 0 1 0 0-64h-640a32 32 0 0 0 0 64z"  horiz-adv-x="1024" />

    
    <glyph glyph-name="cancel-o" unicode="&#59114;" d="M480 0a352 352 0 1 1 0 704 352 352 0 0 1 0-704z m0-64a416 416 0 1 0 0 832 416 416 0 0 0 0-832zM361.856 505.344l271.488-271.488a32 32 0 0 0-45.248-45.248L316.608 460.096a32 32 0 1 0 45.248 45.248z m281.6 0a32 32 0 0 0 0-45.248L371.84 188.608a32 32 0 0 0-45.248 45.248l271.488 271.488a32 32 0 0 0 45.248 0z"  horiz-adv-x="1024" />

    
    <glyph glyph-name="calendar-o" unicode="&#59116;" d="M127.04 703.104l0.256 0.128-0.256-0.128zM128 685.952v-667.904c0-11.584 0.128-15.68 0.448-17.6 1.92-0.32 6.016-0.448 17.6-0.448h731.904c11.584 0 15.68 0.128 17.6 0.448 0.32 1.92 0.448 6.016 0.448 17.6V685.952c0 11.584-0.128 15.68-0.448 17.6A143.872 143.872 0 0 1 877.952 704H146.048c-11.584 0-15.68-0.128-17.6-0.448-0.32-1.92-0.448-6.016-0.448-17.6z m767.104-686.848l0.064 0.192v-0.192z m1.792 704l-0.192 0.064h0.192zM146.048 768h731.904c28.544 0 38.848-2.944 49.28-8.576 10.432-5.568 18.624-13.76 24.192-24.192 5.632-10.432 8.576-20.736 8.576-49.28v-667.904c0-28.544-2.944-38.848-8.576-49.28a58.176 58.176 0 0 0-24.192-24.192c-10.432-5.632-20.736-8.576-49.28-8.576H146.048c-28.544 0-38.848 2.944-49.28 8.576a58.176 58.176 0 0 0-24.192 24.192c-5.632 10.432-8.576 20.736-8.576 49.28V685.952c0 28.544 2.944 38.848 8.576 49.28a58.176 58.176 0 0 0 24.192 24.192c10.432 5.632 20.736 8.576 49.28 8.576zM128 576h768v-64H128zM320 832l64 0 0-192-64 0 0 192ZM640 832l64 0 0-192-64 0 0 192ZM288 384a32 32 0 1 0 0-64 32 32 0 0 0 0 64z m448 0a32 32 0 1 0 0-64 32 32 0 0 0 0 64zM512 384a32 32 0 1 0 0-64 32 32 0 0 0 0 64z m-224-192a32 32 0 1 0 0-64 32 32 0 0 0 0 64z m448 0a32 32 0 1 0 0-64 32 32 0 0 0 0 64zM512 192a32 32 0 1 0 0-64 32 32 0 0 0 0 64z"  horiz-adv-x="1024" />

    
    <glyph glyph-name="collect-o" unicode="&#59117;" d="M296.064 86.784L512 200.32l215.936-113.536-41.216 240.448 174.72 170.24-241.472 35.2L512 751.36 404.032 532.608l-241.408-35.072 174.72-170.24-41.28-240.512zM512 128l-186.176-97.92a64 64 0 0 0-92.8 67.52l35.52 207.296-150.656 146.816a64 64 0 0 0 35.52 109.184l208.128 30.208 93.056 188.608a64 64 0 0 0 114.816 0l93.056-188.608 208.128-30.208a64 64 0 0 0 35.52-109.184l-150.656-146.816 35.584-207.36a64 64 0 0 0-92.864-67.392L512 128z"  horiz-adv-x="1024" />

    
    <glyph glyph-name="CM-o" unicode="&#59118;" d="M288 256h448c123.712 0 224-114.56 224-256v-64H64v64c0 141.44 100.288 256 224 256z m0-64C195.2 192 120 106.048 120 0v-64h784v64c0 106.048-75.2 192-168 192h-448z m112 64v-64h224V256h-224zM448 256l128 0 0-64-128 0 0 64ZM576 0l-64-64-64 64 64 192 64-192zM512 384a192 192 0 1 1 0 384 192 192 0 0 1 0-384z m0-64a256 256 0 1 0 0 512 256 256 0 0 0 0-512z"  horiz-adv-x="1024" />

    
    <glyph glyph-name="download-o" unicode="&#59119;" d="M576 184.256l126.4 126.4a32 32 0 0 0 45.248-45.312l-180.992-180.992a32 32 0 0 0-45.312 0L340.352 265.344a32 32 0 0 0 45.248 45.312L512 184.256V800a32 32 0 0 0 64 0v-615.744zM160 0h768a32 32 0 1 0 0-64h-768a32 32 0 1 0 0 64z"  horiz-adv-x="1024" />

    
    <glyph glyph-name="delete-o" unicode="&#59120;" d="M262.72 512l51.2-512h396.16l51.2 512h-498.56z m0 64h498.56a64 64 0 0 0 63.68-70.4l-51.2-512a64 64 0 0 0-63.68-57.6h-396.16a64 64 0 0 0-63.68 57.6l-51.2 512A64 64 0 0 0 262.72 576zM160 704h704a32 32 0 1 0 0-64h-704a32 32 0 0 0 0 64z m256 64a32 32 0 0 1 0-64h192a32 32 0 0 1 0 64h-192z m0 64h192a96 96 0 0 0 0-192h-192a96 96 0 0 0 0 192z"  horiz-adv-x="1024" />

    
    <glyph glyph-name="export-o" unicode="&#59121;" d="M826.624 603.904L712 456.96a32 32 0 0 1 50.432-39.424l155.264 198.912a31.936 31.936 0 0 1-10.24 53.376l-194.688 152.192a32 32 0 1 1-39.424-50.432l135.04-105.6C522.88 627.008 288 398.528 288 64a32 32 0 0 1 64 0c0 303.616 214.4 508.8 474.624 539.904zM96-64h768a32 32 0 1 1 0 64h-768a32 32 0 0 1 0-64z"  horiz-adv-x="1024" />

    
    <glyph glyph-name="DT-o" unicode="&#59122;" d="M128 576h768v-64H128V576z m100.096 192c-42.368 0-55.296-2.496-68.48-9.536a52.352 52.352 0 0 1-22.08-22.144C130.496 723.2 128 710.272 128 667.904v-567.808c0-42.368 2.496-55.296 9.536-68.48a52.352 52.352 0 0 1 22.144-22.08c13.12-7.04 26.048-9.536 68.416-9.536h567.808c42.368 0 55.296 2.496 68.48 9.536a52.352 52.352 0 0 1 22.08 22.144c7.04 13.12 9.536 26.048 9.536 68.416V667.904c0 42.368-2.496 55.296-9.536 68.48a52.352 52.352 0 0 1-22.144 22.08C851.2 765.504 838.272 768 795.904 768H228.096z m0 64h567.808c57.088 0 77.76-5.952 98.56-17.088 20.928-11.136 37.312-27.52 48.448-48.384 11.136-20.864 17.088-41.6 17.088-98.56v-567.872c0-57.088-5.952-77.76-17.088-98.56-11.136-20.928-27.52-37.312-48.384-48.448-20.864-11.136-41.6-17.088-98.56-17.088H228.032c-57.088 0-77.76 5.952-98.56 17.088a116.288 116.288 0 0 0-48.448 48.384c-11.136 20.864-17.088 41.6-17.088 98.56V667.968c0 57.088 5.952 77.76 17.088 98.56 11.136 20.928 27.52 37.312 48.384 48.448 20.864 11.136 41.6 17.088 98.56 17.088z m551.36-591.104l-60.352-60.352a21.312 21.312 0 0 0-30.208 30.208l45.248 45.248-45.248 45.248a21.312 21.312 0 0 0 30.208 30.208l60.352-60.352c8.32-8.32 8.32-21.888 0-30.208zM289.856 256l45.248-45.248a21.312 21.312 0 1 0-30.208-30.208l-60.352 60.352a21.312 21.312 0 0 0 0 30.208l60.352 60.352a21.312 21.312 0 1 0 30.208-30.208L289.856 256zM480 256h64a32 32 0 1 0 0-64h-64a32 32 0 1 0 0 64z"  horiz-adv-x="1024" />

    
    <glyph glyph-name="home-o" unicode="&#59123;" d="M863.740997-96.004a31.996 31.996 0 0 0-31.996-31.996h-703.912011a31.996 31.996 0 0 0-31.996001 31.996v383.952006a31.996 31.996 0 0 0 63.992001 0v-351.956005h191.976003v351.956005a31.996 31.996 0 0 0 31.996001 31.996001h191.976003a31.868016 31.868016 0 0 0 31.996-31.996001v-351.956005h191.976003v351.956005a31.996 31.996 0 1 0 63.992001 0v-383.952006z m-319.960005 31.996001v319.960005h-127.984002v-319.960005h127.984002zM509.737248 819.849519l450.119735-450.183727a31.996 31.996 0 0 0-45.242345-45.242345L484.460408 754.577678 54.754121 324.871391a31.996 31.996 0 1 0-45.306337 45.242345l452.551431 452.551431a31.996 31.996 0 0 0 47.738033-2.815648z"  horiz-adv-x="1024" />

    
    <glyph glyph-name="HPortrait-o" unicode="&#59124;" d="M512 768a384 384 0 1 1 0-768A384 384 0 0 1 512 768z m0 64a448 448 0 1 0 0-896A448 448 0 0 0 512 832z m0-448a128 128 0 1 1 0 256 128 128 0 0 1 0-256z m0-64a192 192 0 1 0 0 384 192 192 0 0 0 0-384z m-175.68-128h351.36c10.24 0 14.08 0.128 15.872 0.448a122.24 122.24 0 0 1 0.448 15.872V224a32 32 0 0 1-32 32h-320a32 32 0 0 1-32-32v-15.68c0-10.24 0.128-14.08 0.448-15.872 1.856-0.32 5.632-0.448 15.872-0.448z m366.784-0.896l0.064 0.128-0.064-0.128zM352 320h320a96 96 0 0 0 96-96v-15.68c0-26.432-2.944-37.12-8.576-47.552a58.176 58.176 0 0 0-24.192-24.192c-10.432-5.632-21.12-8.576-47.552-8.576h-351.36c-26.432 0-37.12 2.944-47.552 8.576a58.176 58.176 0 0 0-24.192 24.192c-5.632 10.432-8.576 21.12-8.576 47.552V224A96 96 0 0 0 352 320z"  horiz-adv-x="1024" />

    
    <glyph glyph-name="IM-o" unicode="&#59125;" d="M192 768a64 64 0 0 1-64-64v-128a64 64 0 0 1 64-64h128a64 64 0 0 1 64 64V704a64 64 0 0 1-64 64H192z m0 64h128a128 128 0 0 0 128-128v-128a128 128 0 0 0-128-128H192a128 128 0 0 0-128 128V704a128 128 0 0 0 128 128z m512-576a64 64 0 0 1-64-64v-128a64 64 0 0 1 64-64h128a64 64 0 0 1 64 64v128a64 64 0 0 1-64 64h-128z m0 64h128a128 128 0 0 0 128-128v-128a128 128 0 0 0-128-128h-128a128 128 0 0 0-128 128v128a128 128 0 0 0 128 128zM608 768h320a32 32 0 1 0 0-64h-320a32 32 0 0 0 0 64z m0-192h320a32 32 0 1 0 0-64h-320a32 32 0 0 0 0 64z m-512-320h320a32 32 0 1 0 0-64h-320a32 32 0 1 0 0 64z m0-192h320a32 32 0 1 0 0-64h-320a32 32 0 1 0 0 64z"  horiz-adv-x="1024" />

    
    <glyph glyph-name="edit-o" unicode="&#59126;" d="M757.696 654.848a32 32 0 0 1-45.248 0l-407.296-407.296a32 32 0 0 1 45.248-45.248l407.296 407.296a32 32 0 0 1 0 45.248z m45.248 45.248a96 96 0 0 0 0-135.744l-407.296-407.296a96 96 0 1 0-135.744 135.744l407.296 407.296a96 96 0 0 0 135.68 0zM96 64h832a32 32 0 1 0 0-64h-832a32 32 0 1 0 0 64z"  horiz-adv-x="1024" />

    
    <glyph glyph-name="inform-o" unicode="&#59127;" d="M704 128V480a224 224 0 0 1-199.04 222.656l-24.96 2.752-24.96-2.752A224 224 0 0 1 256 480V128h448z m64 352V128h96a32 32 0 1 0 0-64h-768a32 32 0 1 0 0 64H192V480a288 288 0 0 0 256 286.272V800a32 32 0 0 0 64 0v-33.728A288 288 0 0 0 768 480zM416-64h128-128z m0 64h128a32 32 0 1 0 0-64h-128a32 32 0 1 0 0 64z"  horiz-adv-x="1024" />

    
    <glyph glyph-name="menuR-o" unicode="&#59128;" d="M928 832h-832a32 32 0 1 1 0-64h832a32 32 0 0 1 0 64z m0-832h-832a32 32 0 1 1 0-64h832a32 32 0 1 1 0 64z m-256 416h-576a32 32 0 1 1 0-64h576a32 32 0 0 1 0 64z m256-32l-192 128v-256l192 128z"  horiz-adv-x="1024" />

    
    <glyph glyph-name="more-o" unicode="&#59129;" d="M128 320a64 64 0 1 0 0 128 64 64 0 0 0 0-128z m384 0a64 64 0 1 0 0 128 64 64 0 0 0 0-128z m384 0a64 64 0 1 0 0 128 64 64 0 0 0 0-128z"  horiz-adv-x="1024" />

    
    <glyph glyph-name="menuL-o" unicode="&#59130;" d="M96 832h832a32 32 0 1 0 0-64h-832a32 32 0 0 0 0 64z m0-832h832a32 32 0 1 0 0-64h-832a32 32 0 1 0 0 64z m256 416h576a32 32 0 1 0 0-64h-576a32 32 0 0 0 0 64z m-256-32l192 128v-256l-192 128z"  horiz-adv-x="1024" />

    
    <glyph glyph-name="myJob-o" unicode="&#59131;" d="M192 704a64 64 0 0 1-64-64v-384a64 64 0 0 1 64-64h640a64 64 0 0 1 64 64V640a64 64 0 0 1-64 64H192z m0 64h640a128 128 0 0 0 128-128v-384a128 128 0 0 0-128-128H192a128 128 0 0 0-128 128V640a128 128 0 0 0 128 128zM96 64h832a32 32 0 1 0 0-64h-832a32 32 0 1 0 0 64z"  horiz-adv-x="1024" />

    
    <glyph glyph-name="out-o" unicode="&#59132;" d="M850.112 320H480a32 32 0 0 0 0 64h370.56L769.28 465.408a32 32 0 0 0 45.248 45.248l134.208-134.272a31.936 31.936 0 0 0-2.176-50.496l-132.032-132.032a32 32 0 0 0-45.248 45.248L850.112 320zM704 192v-256h-64v256h64z m0 320h-64V685.952c0 28.544-2.944 38.848-8.576 49.28a58.176 58.176 0 0 1-24.192 24.192C596.8 765.056 586.496 768 557.952 768H210.048c-28.544 0-38.848-2.944-49.28-8.576a58.176 58.176 0 0 1-24.192-24.192c-5.632-10.432-8.576-20.736-8.576-49.28V-64H64V667.904c0 57.088 5.952 77.76 17.088 98.56 11.136 20.928 27.52 37.312 48.384 48.448 20.864 11.136 41.6 17.088 98.56 17.088h311.872c57.088 0 77.76-5.952 98.56-17.088 20.928-11.136 37.312-27.52 48.448-48.384 11.136-20.864 17.088-41.6 17.088-98.56V512z"  horiz-adv-x="1024" />

    
    <glyph glyph-name="praise-o" unicode="&#59133;" d="M381.184 436.48a711.936 711.936 0 0 0 0.384 0.576l-0.384-0.64zM384 0h384.896l110.912 448H565.312l69.888 149.888a64 64 0 0 1-115.968 54.08l-16-34.112A704 704 0 0 0 384 439.488V0z m281.792 512H879.808a64 64 0 0 0 62.08-79.36l-110.848-448a64 64 0 0 0-62.08-48.64H384a64 64 0 0 0-64 64V448c0 11.072 4.736 21.632 14.08 31.744a640 640 0 0 1 111.232 165.12l15.872 34.176A128 128 0 0 0 695.424 576l-12.416-27.072-17.28-36.928zM128 448v-448h64V448H128z m0 64h64a64 64 0 0 0 64-64v-448a64 64 0 0 0-64-64H128a64 64 0 0 0-64 64V448a64 64 0 0 0 64 64z"  horiz-adv-x="1024" />

    
    <glyph glyph-name="printer-o" unicode="&#59134;" d="M320 192v-192h384v192H320z m-64 64h512v-256a64 64 0 0 0-64-64H320a64 64 0 0 0-64 64v256zM256 640h512V768H256v-128z m0 192h512a64 64 0 0 0 64-64v-192H192V768a64 64 0 0 0 64 64zM896 384V448H128v-64h768z m0-256V320H128v-192a64 64 0 0 0-64 64V448a64 64 0 0 0 64 64h768a64 64 0 0 0 64-64v-256a64 64 0 0 0-64-64z"  horiz-adv-x="1024" />

    
    <glyph glyph-name="PM-o" unicode="&#59135;" d="M409.984 704H128v-704h768V585.984v7.04H539.328A128 128 0 0 0 417.92 680.32L409.984 704z m129.28-46.912h348.928c24.96 0 34.048-2.56 43.136-7.424a50.624 50.624 0 0 0 21.184-20.992c4.864-8.96 7.488-17.984 7.488-42.688v-578.88c0-24.704-2.56-33.664-7.488-42.752a50.624 50.624 0 0 0-21.12-20.928c-9.152-4.864-18.24-7.424-43.2-7.424H135.808c-24.96 0-34.048 2.56-43.136 7.424a50.624 50.624 0 0 0-21.184 20.928C66.56-26.56 64-17.6 64 7.104V712.512A55.68 55.68 0 0 0 120 768h295.68c24.064 0 45.44-15.296 53.12-37.952l9.856-29.44a64 64 0 0 1 60.672-43.52zM288 384h448a32 32 0 1 0 0-64h-448a32 32 0 0 0 0 64z m0-192h448a32 32 0 1 0 0-64h-448a32 32 0 1 0 0 64z"  horiz-adv-x="1024" />

    
    <glyph glyph-name="screen-o" unicode="&#59136;" d="M198.4 704L448 494.528V96L576 0V493.696L827.648 704H198.4zM384 464.64L157.248 654.976A64 64 0 0 0 198.4 768h629.248a64 64 0 0 0 41.088-113.088L640 463.808V0a64 64 0 0 0-102.4-51.2l-128 96a64 64 0 0 0-25.6 51.2V464.64z"  horiz-adv-x="1024" />

    
    <glyph glyph-name="save-o" unicode="&#59137;" d="M228.096 768c-42.368 0-55.296-2.496-68.48-9.536a52.352 52.352 0 0 1-22.08-22.144C130.496 723.2 128 710.272 128 667.904v-567.808c0-42.368 2.496-55.296 9.536-68.48a52.352 52.352 0 0 1 22.144-22.08c13.12-7.04 26.048-9.536 68.416-9.536h567.808c42.368 0 55.296 2.496 68.48 9.536a52.352 52.352 0 0 1 22.08 22.144c7.04 13.12 9.536 26.048 9.536 68.416V667.904c0 42.368-2.496 55.296-9.536 68.48a52.352 52.352 0 0 1-22.144 22.08C851.2 765.504 838.272 768 795.904 768H228.096z m0 64h567.808c57.088 0 77.76-5.952 98.56-17.088 20.928-11.136 37.312-27.52 48.448-48.384 11.136-20.864 17.088-41.6 17.088-98.56v-567.872c0-57.088-5.952-77.76-17.088-98.56-11.136-20.928-27.52-37.312-48.384-48.448-20.864-11.136-41.6-17.088-98.56-17.088H228.032c-57.088 0-77.76 5.952-98.56 17.088a116.288 116.288 0 0 0-48.448 48.384c-11.136 20.864-17.088 41.6-17.088 98.56V667.968c0 57.088 5.952 77.76 17.088 98.56 11.136 20.928 27.52 37.312 48.384 48.448 20.864 11.136 41.6 17.088 98.56 17.088zM320 768v-256h384V768H320zM256 832h512v-320a64 64 0 0 0-64-64H320a64 64 0 0 0-64 64V832zM608 704a32 32 0 0 0 32-32v-64a32 32 0 0 0-64 0v64a32 32 0 0 0 32 32z"  horiz-adv-x="1024" />

    
    <glyph glyph-name="system-o" unicode="&#59138;" d="M544 768.32L192 574.72v-381.568l352-193.536L896 193.28V574.72L544 768.32z m30.848 56.064l352-193.472A64 64 0 0 0 960 574.72v-381.568a64 64 0 0 0-33.152-56.128l-352-193.472a64 64 0 0 0-61.696 0l-352 193.472A64 64 0 0 0 128 193.28V574.72a64 64 0 0 0 33.152 56.128l352 193.472a64 64 0 0 0 61.696 0zM576 396.8v-236.8a32 32 0 1 0-64 0V395.008L302.272 516.096a32 32 0 0 0 32 55.424l208.192-120.192 210.112 121.28a32 32 0 0 0 32-55.424L576 396.8z"  horiz-adv-x="1024" />

    
    <glyph glyph-name="tick-o" unicode="&#59139;" d="M341.632 44.288l565.12 565.184a32 32 0 1 0 45.312-45.248l-583.36-583.36a32.128 32.128 0 0 0-25.728-14.272 31.936 31.936 0 0 0-28.672 14.464L47.872 247.488a32 32 0 1 0 45.248 45.248l248.512-248.448z"  horiz-adv-x="1024" />

    
    <glyph glyph-name="share-o" unicode="&#59140;" d="M326.336 407.36a112 112 0 1 1 13.696-121.92l9.792 19.456 1.792 21.76a114.368 114.368 0 0 1-5.376 45.056l-6.592 19.584-13.312 16.064z m318.4-295.04a112 112 0 1 1 18.816 36.352l-12.8-16.448-6.016-19.84z m24.576 468.096a112 112 0 1 1-21.632 34.56l7.616-19.2 14.08-15.36zM397.056 256.64a176 176 0 1 0-21.44 191.616l212.544 143.36a176 176 0 1 0 33.92-54.336L406.848 392.064a175.808 175.808 0 0 0 8.576-70.656l197.632-133.376a176 176 0 1 0-29.632-57.216L397.056 256.512z"  horiz-adv-x="1024" />

    
    <glyph glyph-name="time-o" unicode="&#59141;" d="M480 0a352 352 0 1 1 0 704 352 352 0 0 1 0-704z m0-64a416 416 0 1 0 0 832 416 416 0 0 0 0-832zM480 640a32 32 0 0 0 32-32v-256a32 32 0 0 0-64 0v256a32 32 0 0 0 32 32zM480 384h192a32 32 0 1 0 0-64h-192a32 32 0 0 0 0 64z"  horiz-adv-x="1024" />

    
    <glyph glyph-name="template-o" unicode="&#59142;" d="M887.68 387.072a64 64 0 0 0-22.08-79.168L571.52 106.24a64 64 0 0 0-72.32 0L204.928 307.84a64 64 0 0 0-22.144 79.168l316.224-216.832a64 64 0 0 1 72.384 0l316.288 216.832z m0-128a64 64 0 0 0-22.08-79.168L571.52-21.76a64 64 0 0 0-72.32 0L204.928 179.84a64 64 0 0 0-22.144 79.168l316.224-216.832a64 64 0 0 1 72.384 0l316.288 216.832zM571.52 743.168l294.08-201.664a64 64 0 0 0 0-105.6L571.52 234.24a64 64 0 0 0-72.32 0L204.928 435.84a64 64 0 0 0 0 105.6l294.08 201.664a64 64 0 0 0 72.384 0z m-36.224-37.248l-316.8-217.216 316.8-217.216 316.8 217.216-316.8 217.216z"  horiz-adv-x="1024" />

    
    <glyph glyph-name="set-o" unicode="&#59143;" d="M252.416 667.52l-23.936-23.936c-11.328-11.392-12.928-13.632-13.632-15.936 0.704-2.24 2.304-4.48 13.632-15.872a110.336 110.336 0 0 0-78.016-188.416c-16.064 0-18.752-0.448-20.864-1.536-1.152-2.176-1.6-4.8-1.6-20.928v-33.792c0-16.128 0.448-18.752 1.6-20.928 2.112-1.088 4.8-1.536 20.864-1.536a110.336 110.336 0 0 0 78.08-188.416c-11.392-11.392-12.992-13.632-13.696-15.872 0.704-2.304 2.304-4.48 13.632-15.936l23.936-23.936c11.392-11.328 13.632-12.928 15.936-13.632 2.24 0.704 4.48 2.304 15.872 13.632a110.336 110.336 0 0 0 188.416-78.016v-17.536c0-2.752 2.176-4.928 4.928-4.928h68.864a4.928 4.928 0 0 1 4.928 4.928v17.536a110.336 110.336 0 0 0 188.416 78.08c11.392-11.392 13.632-12.992 15.872-13.696 2.304 0.704 4.48 2.304 15.936 13.632l23.936 23.936c11.328 11.392 12.928 13.632 13.632 15.936-0.704 2.24-2.304 4.48-13.632 15.872a110.336 110.336 0 0 0 78.016 188.416c16.064 0 18.752 0.448 20.864 1.536 1.152 2.176 1.6 4.8 1.6 20.928v33.792c0 16.128-0.448 18.752-1.6 20.928-2.112 1.088-4.8 1.536-20.864 1.536a110.336 110.336 0 0 0-78.08 188.416c11.392 11.392 12.992 13.632 13.696 15.872-0.704 2.304-2.304 4.48-13.632 15.936l-23.936 23.936c-11.392 11.328-13.632 12.928-15.936 13.632-2.24-0.704-4.48-2.304-15.872-13.632a110.336 110.336 0 0 0-188.416 78.016v17.536A4.928 4.928 0 0 1 546.432 768H477.568a4.928 4.928 0 0 1-4.928-4.928v-17.536a110.336 110.336 0 0 0-188.416-78.08c-11.392 11.392-13.632 12.992-15.872 13.696-2.304-0.704-4.48-2.304-15.936-13.632z m362.944 78.016a46.336 46.336 0 0 1 79.168-32.768c20.16 20.096 30.528 25.984 42.752 29.696a62.656 62.656 0 0 0 36.8 0c12.16-3.712 22.592-9.6 42.752-29.696l23.936-23.936c20.096-20.16 25.984-30.528 29.696-42.752a62.656 62.656 0 0 0 0-36.8c-3.712-12.16-9.6-22.592-29.696-42.752a46.336 46.336 0 0 1 32.768-79.168c28.48 0 40-3.2 51.2-9.152a62.656 62.656 0 0 0 26.048-26.112c6.016-11.2 9.216-22.72 9.216-51.2v-33.792c0-28.48-3.2-40-9.216-51.2a62.656 62.656 0 0 0-26.048-26.112c-11.2-5.952-22.72-9.152-51.2-9.152a46.336 46.336 0 0 1-32.768-79.168c20.096-20.16 25.984-30.528 29.696-42.752a62.656 62.656 0 0 0 0-36.8c-3.712-12.16-9.6-22.592-29.696-42.752l-23.936-23.936c-20.16-20.096-30.528-25.984-42.752-29.696a62.656 62.656 0 0 0-36.8 0c-12.16 3.712-22.592 9.6-42.752 29.696a46.336 46.336 0 0 1-79.168-32.768v-17.536c0-38.08-30.848-68.928-68.928-68.928H477.568a68.928 68.928 0 0 0-68.928 68.928v17.536a46.336 46.336 0 0 1-79.168 32.768c-20.16-20.096-30.528-25.984-42.752-29.696a62.656 62.656 0 0 0-36.8 0c-12.16 3.712-22.592 9.6-42.752 29.696l-23.936 23.936c-20.096 20.16-25.984 30.528-29.696 42.752a62.656 62.656 0 0 0 0 36.8c3.712 12.16 9.6 22.592 29.696 42.752a46.336 46.336 0 0 1-32.768 79.168c-28.48 0-40 3.2-51.2 9.152a62.656 62.656 0 0 0-26.048 26.112C67.2 327.04 64 338.56 64 367.104v33.792c0 28.48 3.2 40 9.216 51.2a62.656 62.656 0 0 0 26.048 26.112c11.2 5.952 22.72 9.152 51.2 9.152a46.336 46.336 0 0 1 32.768 79.168c-20.096 20.16-25.984 30.528-29.696 42.752a62.656 62.656 0 0 0 0 36.8c3.712 12.16 9.6 22.592 29.696 42.752l23.936 23.936c20.16 20.096 30.528 25.984 42.752 29.696a62.656 62.656 0 0 0 36.8 0c12.16-3.712 22.592-9.6 42.752-29.696a46.336 46.336 0 0 1 79.168 32.768v17.536C408.64 801.152 439.488 832 477.568 832h68.864c38.08 0 68.928-30.848 68.928-68.928v-17.536zM512 206.72a177.28 177.28 0 1 1 0 354.56 177.28 177.28 0 0 1 0-354.56z m0-64a241.28 241.28 0 1 0 0 482.56 241.28 241.28 0 0 0 0-482.56zM511.872 339.968a44.16 44.16 0 1 1 0 88.32 44.16 44.16 0 0 1 0-88.32z m0-64a108.16 108.16 0 1 0 0 216.32 108.16 108.16 0 0 0 0-216.32z"  horiz-adv-x="1024" />

    
    <glyph glyph-name="treeClose-o" unicode="&#59144;" d="M96 384h832a32 32 0 1 0 0-64h-832a32 32 0 0 0 0 64z"  horiz-adv-x="1024" />

    
    <glyph glyph-name="toLead-o" unicode="&#59145;" d="M355.456 144.96C386.56 507.648 626.496 736 896 736a32 32 0 1 1 0 64c-305.92 0-575.04-258.88-605.184-660.288l-128.64 128.64a32 32 0 1 1-45.312-45.184l175.808-175.808a32 32 0 0 1 52.224-3.456l179.264 179.2a32 32 0 0 1-45.248 45.312l-123.52-123.52zM96-64h768a32 32 0 1 1 0 64h-768a32 32 0 0 1 0-64z"  horiz-adv-x="1024" />

    
    <glyph glyph-name="upload-o" unicode="&#59146;" d="M576 711.744l126.4-126.4a32 32 0 0 1 45.248 45.312L566.656 811.648a32 32 0 0 1-45.312 0L340.352 630.656a32 32 0 0 1 45.248-45.312L512 711.744V160a32 32 0 0 1 64 0V711.744zM160 0h768a32 32 0 1 1 0 64h-768a32 32 0 1 1 0-64z"  horiz-adv-x="1024" />

    
    <glyph glyph-name="arrowCR" unicode="&#59059;" d="M512-64A448 448 0 1 1 512 832a448 448 0 0 1 0-896z m47.104 448.192L400.64 542.528a32 32 0 1 0 45.248 45.312l181.056-181.056a32 32 0 0 0 0-45.248l-181.056-180.992a32 32 0 0 0-45.248 45.248l158.4 158.4z"  horiz-adv-x="1024" />

    
    <glyph glyph-name="arrowCL" unicode="&#59060;" d="M512-64A448 448 0 1 0 512 832a448 448 0 0 0 0-896z m-47.104 448.192L623.36 542.528a32 32 0 1 1-45.248 45.312L396.992 406.784a32 32 0 0 1 0-45.248l181.056-180.992a32 32 0 0 1 45.248 45.248L464.896 384.192z"  horiz-adv-x="1024" />

    
    <glyph glyph-name="arrowDR" unicode="&#59063;" d="M783.552 384l-316.8-316.8a64 64 0 1 1 90.496-90.496l362.048 362.048a64 64 0 0 1 0 90.496L557.248 791.296A64 64 0 0 1 466.752 700.8L783.552 384zM399.552 384l-316.8-316.8a64 64 0 1 1 90.496-90.496l362.048 362.048a64 64 0 0 1 0 90.496L173.248 791.296A64 64 0 0 1 82.752 700.8L399.552 384z"  horiz-adv-x="1024" />

    
    <glyph glyph-name="arrowDL" unicode="&#59064;" d="M240.448 384l316.8-316.8a64 64 0 1 0-90.496-90.496L104.704 338.752a64 64 0 0 0 0 90.496l362.048 362.048A64 64 0 0 0 557.248 700.8L240.448 384zM624.448 384l316.8-316.8a64 64 0 1 0-90.496-90.496L488.704 338.752a64 64 0 0 0 0 90.496l362.048 362.048a64 64 0 0 0 90.496-90.496L624.448 384z"  horiz-adv-x="1024" />

    
    <glyph glyph-name="BTop" unicode="&#59065;" d="M512-64A448 448 0 1 0 512 832a448 448 0 0 0 0-896zM288 576a32 32 0 0 1 0-64h448a32 32 0 1 1 0 64h-448z m246.656-135.04a32 32 0 0 1-45.312 0l-226.24-226.304a32 32 0 0 1 45.248-45.312L512 372.992l203.648-203.648a32 32 0 0 1 45.248 45.312L534.656 440.896z"  horiz-adv-x="1024" />

    
    <glyph glyph-name="bMinus" unicode="&#59067;" d="M480-64a416 416 0 1 0 0 832 416 416 0 0 0 0-832z m-192 448a32 32 0 0 1 0-64h384a32 32 0 1 1 0 64h-384z"  horiz-adv-x="1024" />

    
    <glyph glyph-name="cAdd" unicode="&#59068;" d="M448 384H288a32 32 0 0 1 0-64H448v-160a32 32 0 1 1 64 0V320h160a32 32 0 1 1 0 64H512V544a32 32 0 0 1-64 0V384z m32-448a416 416 0 1 0 0 832 416 416 0 0 0 0-832z"  horiz-adv-x="1024" />

    
    <glyph glyph-name="download" unicode="&#59069;" d="M512 184.256V576h320a64 64 0 0 0 64-64v-512a64 64 0 0 0-64-64H128a64 64 0 0 0-64 64V512a64 64 0 0 0 64 64h320v-391.744L321.6 310.656a32 32 0 0 1-45.248-45.312l180.992-180.992a32 32 0 0 1 45.312 0l180.992 180.992a32 32 0 1 1-45.248 45.312L512 184.256zM480 832a32 32 0 0 0 32-32V576H448V800a32 32 0 0 0 32 32z"  horiz-adv-x="1024" />

    
    <glyph glyph-name="calendar" unicode="&#59070;" d="M832 768h45.952c28.544 0 38.848-2.944 49.28-8.576 10.432-5.568 18.624-13.76 24.192-24.192 5.632-10.432 8.576-20.736 8.576-49.28v-667.904c0-28.544-2.944-38.848-8.576-49.28a58.176 58.176 0 0 0-24.192-24.192c-10.432-5.632-20.736-8.576-49.28-8.576H146.048c-28.544 0-38.848 2.944-49.28 8.576a58.176 58.176 0 0 0-24.192 24.192c-5.632 10.432-8.576 20.736-8.576 49.28V685.952c0 28.544 2.944 38.848 8.576 49.28a58.176 58.176 0 0 0 24.192 24.192c10.432 5.632 20.736 8.576 49.28 8.576H192v-32a96 96 0 0 1 192 0V768h256v-32a96 96 0 0 1 192 0V768zM160 576a32 32 0 0 1 0-64h704a32 32 0 1 1 0 64h-704z m128 320a32 32 0 0 0 32-32v-128a32 32 0 0 0-64 0v128a32 32 0 0 0 32 32z m448 0a32 32 0 0 0 32-32v-128a32 32 0 1 0-64 0v128a32 32 0 0 0 32 32zM256 256a64 64 0 1 1 0 128 64 64 0 0 1 0-128z m256 0a64 64 0 1 1 0 128 64 64 0 0 1 0-128z m256 0a64 64 0 1 1 0 128 64 64 0 0 1 0-128z m-512-192a64 64 0 1 1 0 128 64 64 0 0 1 0-128z m256 0a64 64 0 1 1 0 128 64 64 0 0 1 0-128z m256 0a64 64 0 1 1 0 128 64 64 0 0 1 0-128z"  horiz-adv-x="1024" />

    
    <glyph glyph-name="cancel" unicode="&#59071;" d="M480 387.2L361.856 505.344a32 32 0 1 1-45.248-45.248l118.144-118.144-108.16-108.16a32 32 0 0 1 45.312-45.184L480 296.704l108.16-108.16a32 32 0 0 1 45.184 45.312L525.248 341.952l118.144 118.144a32 32 0 0 1-45.248 45.248L480 387.2z m0-451.2a416 416 0 1 0 0 832 416 416 0 0 0 0-832z"  horiz-adv-x="1024" />

    
    <glyph glyph-name="edit" unicode="&#59072;" d="M301.376 271.744l460.352 444.608a64 64 0 0 0 88.96-92.096l-460.416-444.608a64 64 0 0 0-88.96 92.096zM96 64h832a32 32 0 1 0 0-64h-832a32 32 0 1 0 0 64z"  horiz-adv-x="1024" />

    
    <glyph glyph-name="collect" unicode="&#59073;" d="M512 128l-186.176-97.92a64 64 0 0 0-92.8 67.52l35.52 207.296-150.656 146.816a64 64 0 0 0 35.52 109.184l208.128 30.208 93.056 188.608a64 64 0 0 0 114.816 0l93.056-188.608 208.128-30.208a64 64 0 0 0 35.52-109.184l-150.656-146.816 35.584-207.36a64 64 0 0 0-92.864-67.392L512 128z"  horiz-adv-x="1024" />

    
    <glyph glyph-name="delete" unicode="&#59074;" d="M262.72 576h498.56a64 64 0 0 0 63.68-70.4l-51.2-512a64 64 0 0 0-63.68-57.6h-396.16a64 64 0 0 0-63.68 57.6l-51.2 512A64 64 0 0 0 262.72 576zM160 704h704a32 32 0 1 0 0-64h-704a32 32 0 0 0 0 64z m256 128h192a96 96 0 0 0 0-192h-192a96 96 0 0 0 0 192z"  horiz-adv-x="1024" />

    
    <glyph glyph-name="headPortrait" unicode="&#59075;" d="M512 832a448 448 0 1 0 0-896A448 448 0 0 0 512 832z m0-512a192 192 0 1 1 0 384 192 192 0 0 1 0-384zM352 320A96 96 0 0 1 256 224v-15.68c0-26.432 2.944-37.12 8.576-47.552 5.568-10.432 13.76-18.624 24.192-24.192 10.432-5.632 21.12-8.576 47.552-8.576h351.36c26.432 0 37.12 2.944 47.552 8.576a58.176 58.176 0 0 1 24.192 24.192c5.632 10.432 8.576 21.12 8.576 47.552V224A96 96 0 0 1 672 320h-320z"  horiz-adv-x="1024" />

    
    <glyph glyph-name="menuR" unicode="&#59076;" d="M928 384l-192 128v-256l192 128zM896 832H128a64 64 0 0 1 0-128h768a64 64 0 1 1 0 128z m0-768H128a64 64 0 0 1 0-128h768a64 64 0 0 1 0 128z m-256 384H128a64 64 0 0 1 0-128h512a64 64 0 1 1 0 128z"  horiz-adv-x="1024" />

    
    <glyph glyph-name="inform" unicode="&#59077;" d="M768 480V128h96a32 32 0 1 0 0-64h-768a32 32 0 1 0 0 64H192V480a288 288 0 0 0 256 286.272V800a32 32 0 0 0 64 0v-33.728A288 288 0 0 0 768 480zM416-64h128-128z m0 64h128a32 32 0 1 0 0-64h-128a32 32 0 1 0 0 64z"  horiz-adv-x="1024" />

    
    <glyph glyph-name="praise" unicode="&#59078;" d="M381.184 436.48a711.936 711.936 0 0 0 0.384 0.576l-0.384-0.64zM665.792 512H879.808a64 64 0 0 0 62.08-79.36l-110.848-448a64 64 0 0 0-62.08-48.64H384a64 64 0 0 0-64 64V448c0 11.072 4.736 21.632 14.08 31.744a640 640 0 0 1 111.232 165.12l15.872 34.176A128 128 0 0 0 695.424 576l-12.416-27.072-17.28-36.928zM128 512h64a64 64 0 0 0 64-64v-448a64 64 0 0 0-64-64H128a64 64 0 0 0-64 64V448a64 64 0 0 0 64 64z"  horiz-adv-x="1024" />

    
    <glyph glyph-name="preview" unicode="&#59079;" d="M512 128c-127.744 0-277.12 85.312-448 256 168.256 170.688 317.568 256 448 256 130.432 0 279.744-85.312 448-256-170.88-170.688-320.256-256-448-256z m0 128a128 128 0 1 1 0 256 128 128 0 0 1 0-256z m0 64a64 64 0 1 0 0 128 64 64 0 0 0 0-128z"  horiz-adv-x="1024" />

    
    <glyph glyph-name="printer" unicode="&#59081;" d="M256 256h512v-256a64 64 0 0 0-64-64H320a64 64 0 0 0-64 64v256zM256 832h512a64 64 0 0 0 64-64v-192H192V768a64 64 0 0 0 64 64zM896 128V320H128v-192a64 64 0 0 0-64 64V448a64 64 0 0 0 64 64h768a64 64 0 0 0 64-64v-256a64 64 0 0 0-64-64zM128 320h64v-192H128zM832 320h64v-192h-64z"  horiz-adv-x="1024" />

    
    <glyph glyph-name="screen" unicode="&#59082;" d="M384 464.64L157.248 654.976A64 64 0 0 0 198.4 768h629.248a64 64 0 0 0 41.088-113.088L640 463.808V0a64 64 0 0 0-102.4-51.2l-128 96a64 64 0 0 0-25.6 51.2V464.64z"  horiz-adv-x="1024" />

    
    <glyph glyph-name="sign" unicode="&#59083;" d="M768 384h64a64 64 0 0 0 64-64v-128H512v-224a32 32 0 1 0-64 0V192H64V320a64 64 0 0 0 64 64h64V640H128a64 64 0 0 0-64 64V832h832v-128a64 64 0 0 0-64-64h-64v-256z"  horiz-adv-x="1024" />

    
    <glyph glyph-name="save" unicode="&#59084;" d="M256 832v-320a64 64 0 0 1 64-64h384a64 64 0 0 1 64 64V832h27.904c57.088 0 77.76-5.952 98.56-17.088 20.928-11.136 37.312-27.52 48.448-48.384 11.136-20.864 17.088-41.6 17.088-98.56v-567.872c0-57.088-5.952-77.76-17.088-98.56-11.136-20.928-27.52-37.312-48.384-48.448-20.864-11.136-41.6-17.088-98.56-17.088H228.032c-57.088 0-77.76 5.952-98.56 17.088a116.288 116.288 0 0 0-48.448 48.384c-11.136 20.864-17.088 41.6-17.088 98.56V667.968c0 57.088 5.952 77.76 17.088 98.56 11.136 20.928 27.52 37.312 48.384 48.448 20.864 11.136 41.6 17.088 98.56 17.088H256zM608 704a32 32 0 0 0 32-32v-64a32 32 0 0 0-64 0v64a32 32 0 0 0 32 32z"  horiz-adv-x="1024" />

    
    <glyph glyph-name="share" unicode="&#59085;" d="M409.408064 236.672412a182.591886 182.591886 0 0 0-162.879898-99.839938A182.271886 182.271886 0 0 0 64.00028 318.912361a182.271886 182.271886 0 0 0 182.527886 182.079886c56.575965 0 107.135933-25.727984 140.607912-66.047959l220.479862 148.351907A182.271886 182.271886 0 0 0 777.535834 832.00004 182.271886 182.271886 0 0 0 959.99972 649.920154a182.271886 182.271886 0 0 0-182.527886-182.079886 182.271886 182.271886 0 0 0-134.719916 59.263963L419.584058 376.896324a181.439887 181.439887 0 0 0 8.831994-73.087954l204.991872-137.983914a182.399886 182.399886 0 0 0 144.06391 70.335956A182.271886 182.271886 0 0 0 959.99972 54.080526 182.271886 182.271886 0 0 0 777.471834-127.99936a182.271886 182.271886 0 0 0-174.719891 234.687853l-193.279879 129.983919z"  horiz-adv-x="1024" />

    
    <glyph glyph-name="set" unicode="&#59086;" d="M615.36 745.536a46.336 46.336 0 0 1 79.168-32.768c20.16 20.096 30.528 25.984 42.752 29.696a62.656 62.656 0 0 0 36.8 0c12.16-3.712 22.592-9.6 42.752-29.696l23.936-23.936c20.096-20.16 25.984-30.528 29.696-42.752a62.656 62.656 0 0 0 0-36.8c-3.712-12.16-9.6-22.592-29.696-42.752a46.336 46.336 0 0 1 32.768-79.168c28.48 0 40-3.2 51.2-9.152a62.656 62.656 0 0 0 26.048-26.112c6.016-11.2 9.216-22.72 9.216-51.2v-33.792c0-28.48-3.2-40-9.216-51.2a62.656 62.656 0 0 0-26.048-26.112c-11.2-5.952-22.72-9.152-51.2-9.152a46.336 46.336 0 0 1-32.768-79.168c20.096-20.16 25.984-30.528 29.696-42.752a62.656 62.656 0 0 0 0-36.8c-3.712-12.16-9.6-22.592-29.696-42.752l-23.936-23.936c-20.16-20.096-30.528-25.984-42.752-29.696a62.656 62.656 0 0 0-36.8 0c-12.16 3.712-22.592 9.6-42.752 29.696a46.336 46.336 0 0 1-79.168-32.768v-17.536c0-38.08-30.848-68.928-68.928-68.928H477.568a68.928 68.928 0 0 0-68.928 68.928v17.536a46.336 46.336 0 0 1-79.168 32.768c-20.16-20.096-30.528-25.984-42.752-29.696a62.656 62.656 0 0 0-36.8 0c-12.16 3.712-22.592 9.6-42.752 29.696l-23.936 23.936c-20.096 20.16-25.984 30.528-29.696 42.752a62.656 62.656 0 0 0 0 36.8c3.712 12.16 9.6 22.592 29.696 42.752a46.336 46.336 0 0 1-32.768 79.168c-28.48 0-40 3.2-51.2 9.152a62.656 62.656 0 0 0-26.048 26.112C67.2 327.04 64 338.56 64 367.104v33.792c0 28.48 3.2 40 9.216 51.2a62.656 62.656 0 0 0 26.048 26.112c11.2 5.952 22.72 9.152 51.2 9.152a46.336 46.336 0 0 1 32.768 79.168c-20.096 20.16-25.984 30.528-29.696 42.752a62.656 62.656 0 0 0 0 36.8c3.712 12.16 9.6 22.592 29.696 42.752l23.936 23.936c20.16 20.096 30.528 25.984 42.752 29.696a62.656 62.656 0 0 0 36.8 0c12.16-3.712 22.592-9.6 42.752-29.696a46.336 46.336 0 0 1 79.168 32.768v17.536C408.64 801.152 439.488 832 477.568 832h68.864c38.08 0 68.928-30.848 68.928-68.928v-17.536z m-103.296-538.88a177.28 177.28 0 1 1 0 354.56 177.28 177.28 0 0 1 0-354.56z m-0.192 69.312a108.16 108.16 0 1 0 0 216.32 108.16 108.16 0 0 0 0-216.32z"  horiz-adv-x="1024" />

    
    <glyph glyph-name="tick" unicode="&#59087;" d="M386.88 89.6l497.28 497.28a64 64 0 0 0 90.56-90.496L438.4-39.872a64.576 64.576 0 0 0-103.488 0.256l-264.448 264.512a64 64 0 1 0 90.496 90.496l225.856-225.856z"  horiz-adv-x="1024" />

    
    <glyph glyph-name="time" unicode="&#59088;" d="M512 384V608a32 32 0 0 1-64 0v-256a32 32 0 0 1 32-32h192a32 32 0 1 1 0 64H512z m-32-448a416 416 0 1 0 0 832 416 416 0 0 0 0-832z"  horiz-adv-x="1024" />

    
    <glyph glyph-name="upload" unicode="&#59089;" d="M512 583.744V192h320a64 64 0 0 1 64 64V768a64 64 0 0 1-64 64H128a64 64 0 0 1-64-64v-512a64 64 0 0 1 64-64h320V583.744L321.6 457.344a32 32 0 0 0-45.248 45.312l180.992 180.992a32 32 0 0 0 45.312 0l180.992-180.992a32 32 0 1 0-45.248-45.312L512 583.744zM480-64a32 32 0 0 1 32 32V192H448v-224a32 32 0 0 1 32-32z"  horiz-adv-x="1024" />

    
    <glyph glyph-name="add" unicode="&#59091;" d="M448 448V768a64 64 0 1 0 128 0v-320h320a64 64 0 0 0 0-128H576v-320a64 64 0 0 0-128 0V320H128a64 64 0 1 0 0 128h320z"  horiz-adv-x="1024" />

    
    <glyph glyph-name="arrowL" unicode="&#59092;" d="M237.248 429.248l357.504 357.504A64 64 0 0 0 704 741.504v-715.008a64 64 0 0 0-109.248-45.248L237.248 338.752a64 64 0 0 0 0 90.496z"  horiz-adv-x="1024" />

    
    <glyph glyph-name="template" unicode="&#59093;" d="M887.68 387.072a64 64 0 0 0-22.08-79.168L571.52 106.24a64 64 0 0 0-72.32 0L204.928 307.84a64 64 0 0 0-22.144 79.168l316.224-216.832a64 64 0 0 1 72.384 0l316.288 216.832z m0-128a64 64 0 0 0-22.08-79.168L571.52-21.76a64 64 0 0 0-72.32 0L204.928 179.84a64 64 0 0 0-22.144 79.168l316.224-216.832a64 64 0 0 1 72.384 0l316.288 216.832zM571.52 743.168l294.08-201.664a64 64 0 0 0 0-105.6L571.52 234.24a64 64 0 0 0-72.32 0L204.928 435.84a64 64 0 0 0 0 105.6l294.08 201.664a64 64 0 0 0 72.384 0z"  horiz-adv-x="1024" />

    
    <glyph glyph-name="arrowU" unicode="&#59094;" d="M466.752 594.752l-357.504-357.504A64 64 0 0 1 154.496 128h715.008a64 64 0 0 1 45.248 109.248L557.248 594.752a64 64 0 0 1-90.496 0z"  horiz-adv-x="1024" />

    
    <glyph glyph-name="arrowD" unicode="&#59095;" d="M466.752 173.248L109.248 530.752A64 64 0 0 0 154.496 640h715.008a64 64 0 0 0 45.248-109.248l-357.504-357.504a64 64 0 0 0-90.496 0z"  horiz-adv-x="1024" />

    
    <glyph glyph-name="treeClose" unicode="&#59096;" d="M128 384h768H128z m0 64h768a64 64 0 0 0 0-128H128a64 64 0 1 0 0 128z"  horiz-adv-x="1024" />

    
    <glyph glyph-name="arrowR" unicode="&#59097;" d="M722.752 429.248L365.248 786.752A64 64 0 0 1 256 741.504v-715.008a64 64 0 0 1 109.248-45.248l357.504 357.504a64 64 0 0 1 0 90.496z"  horiz-adv-x="1024" />

    
    <glyph glyph-name="close" unicode="&#59098;" d="M512 490.496l319.488 319.424a75.328 75.328 0 0 0 106.432-106.432L618.496 384l319.424-319.488a75.328 75.328 0 1 0-106.432-106.432L512 277.504l-319.488-319.424a75.328 75.328 0 1 0-106.432 106.432L405.504 384 86.08 703.488a75.328 75.328 0 0 0 106.432 106.432L512 490.496z"  horiz-adv-x="1024" />

    
    <glyph glyph-name="backlog" unicode="&#59099;" d="M270.592 779.776l1.408 4.224C281.6 812.672 308.352 832 338.56 832h346.88c30.208 0 56.96-19.328 66.56-48l1.408-4.224a64 64 0 0 1 60.736-43.776H832c32.768 0 64-28.672 64-64V0c0-35.328-31.232-64-64-64H192c-32.768 0-64 28.672-64 64V672c0 35.328 31.232 64 64 64h17.92a64 64 0 0 1 60.672 43.776zM288 128a32 32 0 1 1 0-64h448a32 32 0 1 1 0 64h-448z m210.752 133.504l-67.84 67.84a32 32 0 1 1-45.312-45.248l90.496-90.496a31.872 31.872 0 0 1 45.248 0l181.056 181.056a32 32 0 1 1-45.248 45.248L498.752 261.504zM401.152 576H352a32 32 0 0 1 0-64h320a32 32 0 1 1 0 64h-49.152a128 128 0 1 1-221.76 0zM512 576a64 64 0 1 0 0 128 64 64 0 0 0 0-128z"  horiz-adv-x="1024" />

    
    <glyph glyph-name="bondE" unicode="&#59100;" d="M816 447.68c42.24-1.28 60.288-7.04 78.528-16.768 20.864-11.136 37.248-27.52 48.384-48.384 11.136-20.864 17.088-41.6 17.088-98.56v-183.872c0-57.088-5.952-77.76-17.088-98.56-11.136-20.928-27.52-37.312-48.384-48.448-20.864-11.136-41.6-17.088-98.56-17.088H228.032c-57.088 0-77.76 5.952-98.56 17.088a116.288 116.288 0 0 0-48.448 48.384c-11.136 20.864-17.088 41.6-17.088 98.56V283.968c0 57.088 5.952 77.76 17.088 98.56 11.136 20.928 27.52 37.312 48.384 48.448 20.864 11.136 41.6 17.088 98.56 17.088h3.968v-64h75.904c-16.384 39.104-2.112 93.696 38.592 134.4L527.552 699.52c49.92 49.984 120.896 60.16 158.4 22.592l9.024-9.024c-15.296-38.848-11.52-78.976 13.568-104.064 25.152-25.152 65.28-28.864 104.064-13.568l9.088-9.088c32.768-32.768 29.12-91.072-5.632-138.624z m-24-26.816L755.136 384h36.864v36.864zM457.28 256H288a32 32 0 1 1 0-64h448a32 32 0 1 1 0 64H627.136l-9.088-9.088c-49.984-49.984-120.96-60.16-158.4-22.656l-9.088 9.088c3.008 7.552 5.248 15.168 6.784 22.656zM442.88 477.824a24 24 0 0 1 33.92-33.92l110.912 110.848a24 24 0 1 1-33.92 33.92L442.88 477.824z m101.76-101.824a24 24 0 1 1 33.984-33.92l110.912 110.848a24 24 0 0 1-33.92 33.92L544.64 376z"  horiz-adv-x="1024" />

    
    <glyph glyph-name="CM" unicode="&#59101;" d="M480 256a32 32 0 1 1 0-64h64a32 32 0 1 1 0 64h192c123.712 0 224-114.56 224-256v-64H64v64c0 141.44 100.288 256 224 256h192z m32-64l-64-192h128l-64 192z m0-256l64 64H448l64-64z m0 384a256 256 0 1 0 0 512 256 256 0 0 0 0-512z"  horiz-adv-x="1024" />

    
    <glyph glyph-name="DT" unicode="&#59102;" d="M228.096 832h567.808c57.088 0 77.76-5.952 98.56-17.088 20.928-11.136 37.312-27.52 48.448-48.384 11.136-20.864 17.088-41.6 17.088-98.56v-567.872c0-57.088-5.952-77.76-17.088-98.56-11.136-20.928-27.52-37.312-48.384-48.448-20.864-11.136-41.6-17.088-98.56-17.088H228.032c-57.088 0-77.76 5.952-98.56 17.088a116.288 116.288 0 0 0-48.448 48.384c-11.136 20.864-17.088 41.6-17.088 98.56V667.968c0 57.088 5.952 77.76 17.088 98.56 11.136 20.928 27.52 37.312 48.384 48.448 20.864 11.136 41.6 17.088 98.56 17.088zM160 576a32 32 0 0 1 0-64h704a32 32 0 1 1 0 64h-704z m320-320a32 32 0 1 1 0-64h64a32 32 0 1 1 0 64h-64z m-238.336-19.52l47.104 47.104a21.312 21.312 0 0 1-30.208 30.144l-60.288-60.288a21.312 21.312 0 0 1-6.208-16.96 21.312 21.312 0 0 1 6.208-16.896l60.288-60.352a21.312 21.312 0 1 1 30.208 30.208l-47.104 47.04z m589.824 0.32a21.312 21.312 0 0 1-6.144 16.96l-60.352 60.352a21.312 21.312 0 0 1-30.208-30.208l47.104-47.104-47.104-47.04a21.312 21.312 0 0 1 30.208-30.208l60.352 60.352a21.312 21.312 0 0 1 6.144 16.896z"  horiz-adv-x="1024" />

    
    <glyph glyph-name="home" unicode="&#59103;" d="M357.504-37.504h-128a64 64 0 0 0-64 64v320H128a64 64 0 0 0-45.248 109.248l357.504 357.504a64 64 0 0 0 90.496 0l357.504-357.504a64 64 0 0 0-45.248-109.248h-37.504v-320a64 64 0 0 0-64-64h-128v256h-256v-256z"  horiz-adv-x="1024" />

    
    <glyph glyph-name="IM" unicode="&#59104;" d="M192 832h128a128 128 0 0 0 128-128v-128a128 128 0 0 0-128-128H192a128 128 0 0 0-128 128V704a128 128 0 0 0 128 128z m512-512h128a128 128 0 0 0 128-128v-128a128 128 0 0 0-128-128h-128a128 128 0 0 0-128 128v128a128 128 0 0 0 128 128zM608 768h320a32 32 0 1 0 0-64h-320a32 32 0 0 0 0 64z m0-192h320a32 32 0 1 0 0-64h-320a32 32 0 0 0 0 64z m-512-320h320a32 32 0 1 0 0-64h-320a32 32 0 1 0 0 64z m0-192h320a32 32 0 1 0 0-64h-320a32 32 0 1 0 0 64z"  horiz-adv-x="1024" />

    
    <glyph glyph-name="menuL" unicode="&#59105;" d="M96 384l192 128v-256l-192 128zM128 832h768a64 64 0 0 0 0-128H128a64 64 0 1 0 0 128z m0-768h768a64 64 0 0 0 0-128H128a64 64 0 0 0 0 128z m256 384h512a64 64 0 0 0 0-128H384a64 64 0 1 0 0 128z"  horiz-adv-x="1024" />

    
    <glyph glyph-name="more" unicode="&#59106;" d="M160 256a96 96 0 1 0 0 192 96 96 0 0 0 0-192zM512 256a96 96 0 1 0 0 192 96 96 0 0 0 0-192z m352 0a96 96 0 1 0 0 192 96 96 0 0 0 0-192z"  horiz-adv-x="1024" />

    
    <glyph glyph-name="bondIssue" unicode="&#59107;" d="M64 328h56.96c27.392-189.952 192-336 391.04-336 199.04 0 363.648 146.048 391.04 336H960C932.224 107.008 742.208-64 512-64s-420.224 171.008-448 392z m0 112C91.776 660.992 281.792 832 512 832s420.224-171.008 448-392h-56.96c-27.392 189.952-192 336-391.04 336-199.04 0-363.648-146.048-391.04-336H64zM768 256a128 128 0 0 0-128-128H384a128 128 0 0 0-128 128v17.152a128 128 0 0 1 0 221.696V512a128 128 0 0 0 128 128h256a128 128 0 0 0 128-128v-17.152a128 128 0 0 1 0-221.696V256zM416 512a32 32 0 0 1 0-64h192a32 32 0 0 1 0 64h-192z m0-192a32 32 0 0 1 0-64h192a32 32 0 0 1 0 64h-192z"  horiz-adv-x="1024" />

    
    <glyph glyph-name="myJob" unicode="&#59108;" d="M192 768h640a128 128 0 0 0 128-128v-384a128 128 0 0 0-128-128H192a128 128 0 0 0-128 128V640a128 128 0 0 0 128 128zM96 64h832a32 32 0 1 0 0-64h-832a32 32 0 1 0 0 64z"  horiz-adv-x="1024" />

    
    <glyph glyph-name="PM" unicode="&#59109;" d="M539.328 657.088h348.864c24.96 0 34.048-2.56 43.136-7.424a50.624 50.624 0 0 0 21.184-20.992c4.864-8.96 7.488-17.984 7.488-42.688v-578.88c0-24.704-2.56-33.664-7.488-42.752a50.624 50.624 0 0 0-21.12-20.928c-9.152-4.864-18.24-7.424-43.2-7.424H135.808c-24.96 0-34.048 2.56-43.136 7.424a50.624 50.624 0 0 0-21.184 20.928C66.56-26.56 64-17.6 64 7.104V712.512A55.68 55.68 0 0 0 120 768h295.68c24.064 0 45.44-15.296 53.12-37.952l9.856-29.44a64 64 0 0 1 60.672-43.52zM288 384a32 32 0 0 1 0-64h448a32 32 0 1 1 0 64h-448z m0-192a32 32 0 1 1 0-64h448a32 32 0 1 1 0 64h-448z"  horiz-adv-x="1024" />

    
    <glyph glyph-name="out" unicode="&#59110;" d="M228.096 832h311.808c57.088 0 77.76-5.952 98.56-17.088 20.928-11.136 37.312-27.52 48.448-48.384 11.136-20.864 17.088-41.6 17.088-98.56V-64H64V667.904c0 57.088 5.952 77.76 17.088 98.56 11.136 20.928 27.52 37.312 48.384 48.448 20.864 11.136 41.6 17.088 98.56 17.088zM544 384a96 96 0 0 1 0-192H704V384H544z m306.112-128H544a32 32 0 0 0 0 64h306.56L769.28 401.408a32 32 0 0 0 45.248 45.248l135.744-135.808a32 32 0 0 0 0-45.248l-135.68-135.744a32 32 0 0 0-45.312 45.248L850.112 256z"  horiz-adv-x="1024" />

    
    <glyph glyph-name="readLater" unicode="&#59111;" d="M768 371.84A224 224 0 1 1 664.448-64h-518.4c-28.544 0-38.848 2.944-49.28 8.576a58.176 58.176 0 0 0-24.192 24.192c-5.632 10.432-8.576 20.736-8.576 49.28V749.952c0 28.544 2.944 38.848 8.576 49.28a58.176 58.176 0 0 0 24.192 24.192c10.432 5.632 20.736 8.576 49.28 8.576h539.904c28.544 0 38.848-2.944 49.28-8.576 10.432-5.568 18.624-13.76 24.192-24.192 5.632-10.432 8.576-20.736 8.576-49.28V371.84zM224 704a32 32 0 0 1 0-64h384a32 32 0 0 1 0 64h-384z m0-192a32 32 0 0 1 0-64h256a32 32 0 0 1 0 64h-256z m590.784-489.344a160 160 0 1 0 42.112 48.384l132.8-132.736a32 32 0 0 0-45.312-45.312l-129.6 129.664z m-29.44 59.136A96 96 0 1 1 649.6 217.6a96 96 0 0 1 135.744-135.68z"  horiz-adv-x="1024" />

    
    <glyph glyph-name="system" unicode="&#59112;" d="M576 396.8l208.576 120.384a32 32 0 1 1-32 55.424L542.464 451.328 334.272 571.52a32 32 0 1 1-32-55.424L512 395.008V160a32 32 0 1 1 64 0V396.8z m-1.152 427.52l352-193.408A64 64 0 0 0 960 574.72v-381.568a64 64 0 0 0-33.152-56.128l-352-193.472a64 64 0 0 0-61.696 0l-352 193.472A64 64 0 0 0 128 193.28V574.72a64 64 0 0 0 33.152 56.128l352 193.472a64 64 0 0 0 61.696 0z"  horiz-adv-x="1024" />

    
    <glyph glyph-name="startUsing-o" unicode="&#59150;" d="M450.24 384a224 224 0 1 0 0-64H160a32 32 0 0 0 0 64h290.24z m221.76-192a160 160 0 1 1 0 320 160 160 0 0 1 0-320z"  horiz-adv-x="1024" />

    
    <glyph glyph-name="copy-o" unicode="&#59151;" d="M228.096 704H192a128 128 0 0 0 128 128h512a128 128 0 0 0 128-128v-512a128 128 0 0 0-128-128v36.096c0-57.088-5.952-77.76-17.088-98.56-11.136-20.928-27.52-37.312-48.384-48.448-20.864-11.136-41.6-17.088-98.56-17.088H228.032c-57.088 0-77.76 5.952-98.56 17.088a116.288 116.288 0 0 0-48.448 48.384c-11.136 20.864-17.088 41.6-17.088 98.56V539.968c0 57.088 5.952 77.76 17.088 98.56 11.136 20.928 27.52 37.312 48.384 48.448 20.864 11.136 41.6 17.088 98.56 17.088z m28.416 0h411.392c57.088 0 77.76-5.952 98.56-17.088 20.928-11.136 37.312-27.52 48.448-48.384 11.136-20.864 17.088-41.6 17.088-98.56v-411.456c15.616 1.088 23.424 3.84 31.232 8.064a58.176 58.176 0 0 1 24.192 24.192c5.632 10.432 8.576 20.736 8.576 49.28V685.952c0 28.544-2.944 38.848-8.576 49.28a58.176 58.176 0 0 1-24.192 24.192c-10.432 5.632-20.736 8.576-49.28 8.576H338.048c-28.544 0-38.848-2.944-49.28-8.576a58.176 58.176 0 0 1-24.192-24.192c-4.224-7.808-6.976-15.616-8.064-31.232z m-46.464-64c-28.544 0-38.848-2.944-49.28-8.576a58.176 58.176 0 0 1-24.192-24.192c-5.632-10.432-8.576-20.736-8.576-49.28v-475.904c0-28.544 2.944-38.848 8.576-49.28 5.568-10.432 13.76-18.624 24.192-24.192 10.432-5.632 20.736-8.576 49.28-8.576h475.904c28.544 0 38.848 2.944 49.28 8.576a58.176 58.176 0 0 1 24.192 24.192c5.632 10.432 8.576 20.736 8.576 49.28V557.952c0 28.544-2.944 38.848-8.576 49.28a58.176 58.176 0 0 1-24.192 24.192c-10.432 5.632-20.736 8.576-49.28 8.576H210.048zM288 512h320a32 32 0 0 0 0-64h-320a32 32 0 0 0 0 64z m0-160h320a32 32 0 0 0 0-64h-320a32 32 0 0 0 0 64z m0-160h320a32 32 0 1 0 0-64h-320a32 32 0 1 0 0 64z"  horiz-adv-x="1024" />

    
    <glyph glyph-name="forbidden-o" unicode="&#59152;" d="M573.76 384H864a32 32 0 1 0 0-64H573.76a224 224 0 1 0 0 64zM352 192a160 160 0 1 1 0 320 160 160 0 0 1 0-320z"  horiz-adv-x="1024" />

    
    <glyph glyph-name="copy" unicode="&#59147;" d="M192 702.912V704v-1.088c10.24 0.704 22.016 1.088 36.096 1.088h439.808c57.088 0 77.76-5.952 98.56-17.088 20.928-11.136 37.312-27.52 48.448-48.384 11.136-20.864 17.088-41.6 17.088-98.56v-439.872c0-57.088-5.952-77.76-17.088-98.56-11.136-20.928-27.52-37.312-48.384-48.448-20.864-11.136-41.6-17.088-98.56-17.088H228.032c-57.088 0-77.76 5.952-98.56 17.088a116.288 116.288 0 0 0-48.448 48.384c-11.136 20.864-17.088 41.6-17.088 98.56V539.968c0 57.088 5.952 77.76 17.088 98.56 11.136 20.928 27.52 37.312 48.384 48.448 15.744 8.384 31.36 13.824 62.528 16z m704-621.76V704a64 64 0 0 1-64 64H209.152A128 128 0 0 0 320 832h512a128 128 0 0 0 128-128v-512a128 128 0 0 0-64-110.848zM288 512a32 32 0 0 1 0-64h320a32 32 0 0 1 0 64h-320z m0-160a32 32 0 0 1 0-64h320a32 32 0 0 1 0 64h-320z m0-160a32 32 0 1 1 0-64h320a32 32 0 1 1 0 64h-320z"  horiz-adv-x="1024" />

    
    <glyph glyph-name="forbidden" unicode="&#59148;" d="M501.12 448H832a64 64 0 0 0 0-128H501.12a192.064 192.064 0 1 0 0 128z"  horiz-adv-x="1024" />

    
    <glyph glyph-name="startUsing" unicode="&#59149;" d="M522.88 320H192a64 64 0 1 0 0 128h330.88a192.064 192.064 0 1 0 0-128z"  horiz-adv-x="1024" />

    
    <glyph glyph-name="batch" unicode="&#59153;" d="M210.048 512h539.904c28.544 0 38.848-2.944 49.28-8.576 10.432-5.568 18.624-13.76 24.192-24.192 5.632-10.432 8.576-20.736 8.576-49.28v-347.904c0-28.544-2.944-38.848-8.576-49.28a58.176 58.176 0 0 0-24.192-24.192c-10.432-5.632-20.736-8.576-49.28-8.576H210.048c-28.544 0-38.848 2.944-49.28 8.576a58.176 58.176 0 0 0-24.192 24.192c-5.632 10.432-8.576 20.736-8.576 49.28V429.952c0 28.544 2.944 38.848 8.576 49.28a58.176 58.176 0 0 0 24.192 24.192c10.432 5.632 20.736 8.576 49.28 8.576zM288 768h384a32 32 0 1 0 0-64h-384a32 32 0 0 0 0 64z m-64-128h512a32 32 0 1 0 0-64h-512a32 32 0 0 0 0 64z m208.384-490.88L313.472 273.91999999999996a32.576 32.576 0 0 1-47.616 0 36.48 36.48 0 0 1 0-49.92l142.72-149.696a32.576 32.576 0 0 1 47.616 0l237.952 249.472a36.48 36.48 0 0 1 0 49.92 32.576 32.576 0 0 1-47.616 0L432.384 149.12z"  horiz-adv-x="1024" />

    
    <glyph glyph-name="bUp" unicode="&#59154;" d="M512 599.6800000000001l80.192-80.192a32 32 0 0 1 45.248 45.248L501.696 700.48a32 32 0 0 1-45.312 0l-135.68-135.744a32 32 0 0 1 45.184-45.248L448 601.6v-249.6a32 32 0 0 1 64 0V599.6800000000001zM210.048 768h539.904c28.544 0 38.848-2.944 49.28-8.576 10.432-5.568 18.624-13.76 24.192-24.192 5.632-10.432 8.576-20.736 8.576-49.28v-347.904c0-28.544-2.944-38.848-8.576-49.28a58.176 58.176 0 0 0-24.192-24.192c-10.432-5.632-20.736-8.576-49.28-8.576H210.048c-28.544 0-38.848 2.944-49.28 8.576a58.176 58.176 0 0 0-24.192 24.192C130.944 299.20000000000005 128 309.504 128 338.048V685.952c0 28.544 2.944 38.848 8.576 49.28a58.176 58.176 0 0 0 24.192 24.192c10.432 5.632 20.736 8.576 49.28 8.576zM288 64h384a32 32 0 1 0 0-64h-384a32 32 0 1 0 0 64z m-64 128h512a32 32 0 1 0 0-64h-512a32 32 0 1 0 0 64z"  horiz-adv-x="1024" />

    
    <glyph glyph-name="bDownload" unicode="&#59155;" d="M512 172.288V416a32 32 0 0 1-64 0v-245.632l-82.112 82.112a32 32 0 1 1-45.248-45.248l135.744-135.744a32 32 0 0 1 45.312 0l135.68 135.744a32 32 0 1 1-45.184 45.248L512 172.288zM210.048 512h539.904c28.544 0 38.848-2.944 49.28-8.576 10.432-5.568 18.624-13.76 24.192-24.192 5.632-10.432 8.576-20.736 8.576-49.28v-347.904c0-28.544-2.944-38.848-8.576-49.28a58.176 58.176 0 0 0-24.192-24.192c-10.432-5.632-20.736-8.576-49.28-8.576H210.048c-28.544 0-38.848 2.944-49.28 8.576a58.176 58.176 0 0 0-24.192 24.192c-5.632 10.432-8.576 20.736-8.576 49.28V429.952c0 28.544 2.944 38.848 8.576 49.28a58.176 58.176 0 0 0 24.192 24.192c10.432 5.632 20.736 8.576 49.28 8.576zM288 768h384a32 32 0 1 0 0-64h-384a32 32 0 0 0 0 64z m-64-128h512a32 32 0 1 0 0-64h-512a32 32 0 0 0 0 64z"  horiz-adv-x="1024" />

    
    <glyph glyph-name="bUp-o" unicode="&#59156;" d="M512 599.6800000000001V352a32 32 0 0 0-64 0V601.6L365.888 519.488a32 32 0 0 0-45.248 45.248l135.744 135.744a32 32 0 0 0 45.312 0l135.68-135.744a32 32 0 1 0-45.184-45.248L512 599.6800000000001zM228.096 832h503.808c57.088 0 77.76-5.952 98.56-17.088 20.928-11.136 37.312-27.52 48.448-48.384 11.136-20.864 17.088-41.6 17.088-98.56v-311.872c0-57.088-5.952-77.76-17.088-98.56-11.136-20.928-27.52-37.312-48.384-48.448-20.864-11.136-41.6-17.088-98.56-17.088H228.032c-57.088 0-77.76 5.952-98.56 17.088a116.288 116.288 0 0 0-48.448 48.384C69.952 278.4 64 299.072 64 356.03200000000004V667.968c0 57.088 5.952 77.76 17.088 98.56 11.136 20.928 27.52 37.312 48.384 48.448 20.864 11.136 41.6 17.088 98.56 17.088z m-18.048-64c-28.544 0-38.848-2.944-49.28-8.576a58.176 58.176 0 0 1-24.192-24.192c-5.632-10.432-8.576-20.736-8.576-49.28v-347.904c0-28.544 2.944-38.848 8.576-49.28 5.568-10.432 13.76-18.624 24.192-24.192 10.432-5.632 20.736-8.576 49.28-8.576h539.904c28.544 0 38.848 2.944 49.28 8.576a58.176 58.176 0 0 1 24.192 24.192c5.632 10.432 8.576 20.736 8.576 49.28V685.952c0 28.544-2.944 38.848-8.576 49.28a58.176 58.176 0 0 1-24.192 24.192c-10.432 5.632-20.736 8.576-49.28 8.576H210.048zM224 0h512a32 32 0 1 0 0-64h-512a32 32 0 1 0 0 64z m-64 128h640a32 32 0 1 0 0-64h-640a32 32 0 1 0 0 64z"  horiz-adv-x="1024" />

    
    <glyph glyph-name="export" unicode="&#59157;" d="M449.536 384C388.416 297.6 352 189.18399999999997 352 64a32 32 0 0 0-64 0c0 122.176 31.36 230.208 84.992 320H104.96c-14.272 0-19.456-1.472-24.64-4.288a29.056 29.056 0 0 1-12.16-12.096C65.536 362.432 64 357.24800000000005 64 343.03999999999996v-365.952c0-14.272 1.472-19.456 4.288-24.64a29.056 29.056 0 0 1 12.096-12.16c5.184-2.752 10.368-4.224 24.64-4.224h749.952c14.272 0 19.456 1.472 24.64 4.288a29.056 29.056 0 0 1 12.16 12.096c2.752 5.184 4.224 10.368 4.224 24.64V342.976c0 14.272-1.472 19.456-4.288 24.64a29.056 29.056 0 0 1-12.096 12.16C874.432 382.46400000000006 869.248 384 855.04 384H449.536zM826.624 603.904L712 456.96a32 32 0 0 1 50.432-39.424l155.264 198.912a31.936 31.936 0 0 1-10.24 53.376l-194.688 152.192a32 32 0 1 1-39.424-50.432l135.04-105.6c-181.312-24.768-342.272-125.952-435.52-282.24H449.28c87.04 123.264 224.256 201.792 377.28 220.096z"  horiz-adv-x="1024" />

    
    <glyph glyph-name="toLead" unicode="&#59158;" d="M290.816 139.712c6.656 88.832 25.024 170.688 52.928 244.288h-238.72c-14.272 0-19.456-1.472-24.64-4.288a29.056 29.056 0 0 1-12.16-12.096C65.536 362.432 64 357.24800000000005 64 343.03999999999996v-365.952c0-14.272 1.472-19.456 4.288-24.64a29.056 29.056 0 0 1 12.096-12.16c5.184-2.752 10.368-4.224 24.64-4.224h749.952c14.272 0 19.456 1.472 24.64 4.288a29.056 29.056 0 0 1 12.16 12.096c2.752 5.184 4.224 10.368 4.224 24.64V342.976c0 14.272-1.472 19.456-4.288 24.64a29.056 29.056 0 0 1-12.096 12.16C874.432 382.46400000000006 869.248 384 855.04 384H412.48a795.776 795.776 0 0 1-57.024-239.04l123.456 123.456a32 32 0 0 0 45.248-45.248l-179.264-179.264a31.936 31.936 0 0 0-52.224 3.456l-175.808 175.808a32 32 0 1 0 45.248 45.248l128.64-128.64zM343.68 383.744C441.728 642.944 657.664 800 896 800a32 32 0 1 0 0-64c-204.16 0-391.36-131.072-483.712-352.384-28.224 0.128-51.328 0.128-68.608 0.128z"  horiz-adv-x="1024" />

    
    <glyph glyph-name="administrative-o" unicode="&#59115;" d="M164.096 896h695.808c57.088 0 77.76-5.952 98.56-17.088 20.928-11.136 37.312-27.52 48.448-48.384 11.136-20.864 17.088-41.6 17.088-98.56v-695.872c0-57.088-5.952-77.76-17.088-98.56-11.136-20.928-27.52-37.312-48.384-48.448-20.864-11.136-41.6-17.088-98.56-17.088H164.032c-57.088 0-77.76 5.952-98.56 17.088a116.288 116.288 0 0 0-48.448 48.384C5.952-41.60000000000002 0-20.927999999999997 0 36.03200000000004V731.968c0 57.088 5.952 77.76 17.088 98.56 11.136 20.928 27.52 37.312 48.384 48.448C86.4 890.048 107.072 896 164.032 896z m-18.048-64c-28.544 0-38.848-2.944-49.28-8.576a58.176 58.176 0 0 1-24.192-24.192c-5.632-10.432-8.576-20.736-8.576-49.28v-731.904c0-28.544 2.944-38.848 8.576-49.28 5.568-10.432 13.76-18.624 24.192-24.192 10.432-5.632 20.736-8.576 49.28-8.576h731.904c28.544 0 38.848 2.944 49.28 8.576a58.176 58.176 0 0 1 24.192 24.192c5.632 10.432 8.576 20.736 8.576 49.28V749.952c0 28.544-2.944 38.848-8.576 49.28a58.176 58.176 0 0 1-24.192 24.192c-10.432 5.632-20.736 8.576-49.28 8.576H146.048zM384 512a128 128 0 1 0 0 256 128 128 0 0 0 0-256z m0 64a64 64 0 1 1 0 128 64 64 0 0 1 0-128zM256 512h256a128 128 0 0 0 128-128v-64a64 64 0 0 0-64-64H192a64 64 0 0 0-64 64V384a128 128 0 0 0 128 128z m0-64a64 64 0 0 1-64-64v-64h384V384a64 64 0 0 1-64 64H256z m480 64h128a32 32 0 1 0 0-64h-128a32 32 0 1 0 0 64z m0 192h128a32 32 0 1 0 0-64h-128a32 32 0 1 0 0 64z m0-384h128a32 32 0 1 0 0-64h-128a32 32 0 1 0 0 64z m-576-192h704a32 32 0 1 0 0-64h-704a32 32 0 1 0 0 64z"  horiz-adv-x="1024" />

    
    <glyph glyph-name="capitalMarket-o" unicode="&#59159;" d="M512-126.976A480.064 480.064 0 0 0 65.024 320H64V384h1.024A480.064 480.064 0 0 0 512 830.976V832h64v-1.024A480.064 480.064 0 0 0 1022.976 384H1024v-64h-1.024A480.064 480.064 0 0 0 576-126.976V-128H512v1.024z m0 67.2V320H320.64c8-195.008 88.384-352.448 191.36-379.776z m64 0c102.976 27.328 183.36 184.768 191.36 379.776H576v-379.776zM512 763.7760000000001C409.024 736.448 328.64 579.008 320.64 384H512V763.7760000000001z m64 0V384h191.36C759.36 579.008 678.976 736.448 576 763.7760000000001zM129.216 320a416.192 416.192 0 0 1 235.264-343.36C303.04 58.36800000000005 262.08 181.12 256.64 320H129.216z m0 64h127.36c5.568 138.88 46.464 261.632 107.904 343.36A416.192 416.192 0 0 1 129.28 384zM958.72 384a416.192 416.192 0 0 1-235.264 343.36c61.44-81.728 102.4-204.48 107.84-343.36h127.424z m0-64h-127.36c-5.568-138.88-46.464-261.632-107.904-343.36A416.192 416.192 0 0 1 958.72 320z"  horiz-adv-x="1024" />

    
    <glyph glyph-name="exchange-o" unicode="&#59160;" d="M701.76 640a415.744 415.744 0 0 0 194.112-341.504 222.4 222.4 0 0 1-65.152 19.392A351.68 351.68 0 0 1 682.432 576c9.472 19.904 16.064 41.408 19.328 64z m-443.52 0c3.2-22.592 9.856-44.096 19.328-64A351.68 351.68 0 0 1 129.28 317.888c-23.04-3.136-44.928-9.792-65.152-19.392a415.744 415.744 0 0 0 194.112 341.568z m408.32-723.904A414.272 414.272 0 0 0 480-128a414.272 414.272 0 0 0-186.56 44.096 225.28 225.28 0 0 1 47.808 48.32A350.848 350.848 0 0 1 480-64c49.28 0 96.128 10.112 138.752 28.416 13.376-18.432 29.504-34.752 47.808-48.32zM160-64a160 160 0 1 0 0 320 160 160 0 0 0 0-320z m0 64a96 96 0 1 1 0 192 96 96 0 0 1 0-192z m640-64a160 160 0 1 0 0 320 160 160 0 0 0 0-320z m0 64a96 96 0 1 1 0 192 96 96 0 0 1 0-192z m-320 512a160 160 0 1 0 0 320 160 160 0 0 0 0-320z m0 64a96 96 0 1 1 0 192 96 96 0 0 1 0-192z"  horiz-adv-x="1024" />

    
    <glyph glyph-name="compliance-o" unicode="&#59161;" d="M505.6 755.136l87.296-87.232a32 32 0 0 0-45.248-45.312L512 658.304V-96a32 32 0 1 0-64 0V658.752l-36.096-36.16a32 32 0 0 0-45.248 45.312l90.048 90.048a31.936 31.936 0 0 0 48.96-2.816zM160 768a32 32 0 0 0 32-32v-64a32 32 0 0 0-64 0v64a32 32 0 0 0 32 32z m0-192a32 32 0 0 0 32-32v-64a32 32 0 0 0-64 0v64a32 32 0 0 0 32 32z m0-192a32 32 0 0 0 32-32v-64a32 32 0 0 0-64 0v64a32 32 0 0 0 32 32z m704 0a32 32 0 0 0 32-32v-64a32 32 0 1 0-64 0v64a32 32 0 0 0 32 32z m0-192a32 32 0 0 0 32-32v-64a32 32 0 1 0-64 0v64a32 32 0 0 0 32 32z m0-192a32 32 0 0 0 32-32v-64a32 32 0 1 0-64 0v64a32 32 0 0 0 32 32z m-704-128a160 160 0 1 0 0 320 160 160 0 0 0 0-320z m0 64a96 96 0 1 1 0 192 96 96 0 0 1 0-192z m704 512a160 160 0 1 0 0 320 160 160 0 0 0 0-320z m0 64a96 96 0 1 1 0 192 96 96 0 0 1 0-192z"  horiz-adv-x="1024" />

    
    <glyph glyph-name="finance-o" unicode="&#59162;" d="M444.416 576h199.168C706.304 576 768 658.496 768 748.352c-0.64 31.168-17.856 58.368-42.816 67.648-20.352 6.592-41.92-4.032-52.48-25.856-5.376-13.248-14.08-24.32-24.96-31.36a87.232 87.232 0 0 0-22.592 21.632C605.12 810.048 575.872 828.672 544 832c-32.064-3.136-61.696-21.76-81.92-51.584-6.4-8.96-14.08-16.512-22.592-22.272a60.288 60.288 0 0 0-24.96 29.632c-10.688 21.504-32.384 31.552-52.48 24.32-24-8.192-40.896-33.728-42.048-63.424C320 658.752 381.696 576 444.416 576z m-55.872 174.528c11.264-25.92 31.168-44.8 54.656-51.84 22.848 0.64 44.16 14.08 57.856 36.352 10.24 17.28 25.664 29.056 42.944 32.96 17.28-3.648 32.704-15.104 43.2-32.128 13.568-22.4 34.944-35.776 57.856-36.288 23.296 7.04 43.136 25.728 54.4 51.52 2.24-2.496 4.544-1.664 4.544-5.568C704 690.1759999999999 664.704 640 635.456 640H452.48C423.296 640 384 689.6 384 745.6c0 3.84 2.56 3.264 4.544 5.504v-0.576zM972.16 341.312c-38.848 56.96-193.664 239.04-219.136 263.68a104.192 104.192 0 0 1-89.024 34.432h-240a104.192 104.192 0 0 1-89.024-34.432c-25.472-24.64-180.288-204.416-219.136-261.632-38.912-57.152-51.84-103.936-51.84-195.52C64 34.111999999999966 176.064-128 352-128h384c175.936 0 288 160.96 288 274.624 0 91.648-13.184 137.472-51.84 194.688zM728.896-64H359.04C207.36-64 128 75.39200000000005 128 152.32000000000005c0 76.992 10.368 115.584 42.496 162.368 35.2 50.944 181.696 220.48 205.056 242.56 16.384 15.68 18.432 18.752 52.864 18.752h231.168c34.624 0 36.736-4.16 52.864-19.648 23.168-22.016 169.92-190.08 204.992-241.28 32.128-46.912 42.56-83.776 42.56-161.6C960 75.51999999999998 880.704-64 728.896-64zM552.576 320l59.712 103.424a32 32 0 1 0 55.424-32L626.496 320h45.504a32 32 0 0 0 0-64H576v-64h96a32 32 0 1 0 0-64H576v-96a32 32 0 1 0-64 0V128H416a32 32 0 1 0 0 64H512v64H416a32 32 0 0 0 0 64h45.504l-41.216 71.424a32 32 0 1 0 55.424 32L535.424 320h17.152z"  horiz-adv-x="1024" />

    
    <glyph glyph-name="administrative" unicode="&#59090;" d="M164.096 896h695.808c57.088 0 77.76-5.952 98.56-17.088 20.928-11.136 37.312-27.52 48.448-48.384 11.136-20.864 17.088-41.6 17.088-98.56v-695.872c0-57.088-5.952-77.76-17.088-98.56-11.136-20.928-27.52-37.312-48.384-48.448-20.864-11.136-41.6-17.088-98.56-17.088H164.032c-57.088 0-77.76 5.952-98.56 17.088a116.288 116.288 0 0 0-48.448 48.384C5.952-41.6 0-20.928 0 36.032V731.968c0 57.088 5.952 77.76 17.088 98.56 11.136 20.928 27.52 37.312 48.384 48.448C86.4 890.048 107.072 896 164.032 896zM384 512a128 128 0 1 1 0 256 128 128 0 0 1 0-256zM256 512a128 128 0 0 1-128-128v-64a64 64 0 0 1 64-64h384a64 64 0 0 1 64 64V384a128 128 0 0 1-128 128H256z m480 0a32 32 0 1 1 0-64h128a32 32 0 1 1 0 64h-128z m0 192a32 32 0 1 1 0-64h128a32 32 0 1 1 0 64h-128z m0-384a32 32 0 1 1 0-64h128a32 32 0 1 1 0 64h-128z m-576-192a32 32 0 1 1 0-64h704a32 32 0 1 1 0 64h-704z"  horiz-adv-x="1024" />

    
    <glyph glyph-name="capitalMarket" unicode="&#59163;" d="M512-126.976A480.064 480.064 0 0 0 65.024 320H256.64c9.152-232.448 117.632-419.712 255.36-445.056v-1.92z m64 0v1.92c137.728 25.344 246.208 212.608 255.36 445.056h191.616A480.064 480.064 0 0 0 576-126.976zM512 830.976v-1.92C374.272 803.712 265.792 616.448 256.64 384H65.024A480.064 480.064 0 0 0 512 830.976z m64 0A480.064 480.064 0 0 0 1022.976 384H831.36C822.208 616.448 713.728 803.712 576 829.056v1.92zM512-59.776C409.024-32.448 328.64 124.992 320.64 320H512v-379.776z m64 0V320h191.36c-8-195.008-88.384-352.448-191.36-379.776zM512 763.776V384H320.64C328.64 579.008 409.024 736.448 512 763.776z m64 0c102.976-27.328 183.36-184.768 191.36-379.776H576V763.776z"  horiz-adv-x="1024" />

    
    <glyph glyph-name="compliance" unicode="&#59164;" d="M505.6 755.136l87.296-87.232a32 32 0 0 0-45.248-45.312L512 658.304V-96a32 32 0 1 0-64 0V658.752l-36.096-36.16a32 32 0 0 0-45.248 45.312l90.048 90.048a31.936 31.936 0 0 0 48.96-2.816zM160 768a32 32 0 0 0 32-32v-64a32 32 0 0 0-64 0v64a32 32 0 0 0 32 32z m0-192a32 32 0 0 0 32-32v-64a32 32 0 0 0-64 0v64a32 32 0 0 0 32 32z m0-192a32 32 0 0 0 32-32v-64a32 32 0 0 0-64 0v64a32 32 0 0 0 32 32z m704 0a32 32 0 0 0 32-32v-64a32 32 0 1 0-64 0v64a32 32 0 0 0 32 32z m0-192a32 32 0 0 0 32-32v-64a32 32 0 1 0-64 0v64a32 32 0 0 0 32 32z m0-192a32 32 0 0 0 32-32v-64a32 32 0 1 0-64 0v64a32 32 0 0 0 32 32z m-704-128a160 160 0 1 0 0 320 160 160 0 0 0 0-320z m704 576a160 160 0 1 0 0 320 160 160 0 0 0 0-320z"  horiz-adv-x="1024" />

    
    <glyph glyph-name="exchange" unicode="&#59165;" d="M701.76 640a415.744 415.744 0 0 0 194.112-341.504 222.4 222.4 0 0 1-65.152 19.392A351.68 351.68 0 0 1 682.432 576c9.472 19.904 16.064 41.408 19.328 64z m-443.52 0c3.2-22.592 9.856-44.096 19.328-64A351.68 351.68 0 0 1 129.28 317.888c-23.04-3.136-44.928-9.792-65.152-19.392a415.744 415.744 0 0 0 194.112 341.568z m408.32-723.904A414.272 414.272 0 0 0 480-128a414.272 414.272 0 0 0-186.56 44.096 225.28 225.28 0 0 1 47.808 48.32A350.848 350.848 0 0 1 480-64c49.28 0 96.128 10.112 138.752 28.416 13.376-18.432 29.504-34.752 47.808-48.32zM160-64a160 160 0 1 0 0 320 160 160 0 0 0 0-320z m640 0a160 160 0 1 0 0 320 160 160 0 0 0 0-320z m-320 576a160 160 0 1 0 0 320 160 160 0 0 0 0-320z"  horiz-adv-x="1024" />

    
    <glyph glyph-name="finance" unicode="&#59166;" d="M552.576 320h-17.152l-59.712 103.424a32 32 0 1 1-55.424-32L461.504 320H416a32 32 0 0 1 0-64H512v-64H416a32 32 0 1 1 0-64H512v-96a32 32 0 1 1 64 0V128h96a32 32 0 1 1 0 64H576v64h96a32 32 0 0 1 0 64h-45.504l41.216 71.424a32 32 0 1 1-55.424 32L552.576 320z m-192 306.048A207.104 207.104 0 0 0 320 748.672c1.152 29.696 18.048 55.232 42.048 63.424 20.096 7.232 41.792-2.816 52.48-24.32 5.312-12.928 14.08-23.36 24.96-29.632 8.576 5.76 16.192 13.312 22.656 22.272C482.304 810.24 511.936 828.8 544 832c31.808-3.328 61.12-21.952 81.152-51.584 6.4-8.768 14.08-16.128 22.656-21.696 10.816 7.168 19.52 18.176 24.832 31.424 10.624 21.824 32.192 32.448 52.544 25.856 24.96-9.28 42.24-36.48 42.816-67.648 0-46.08-16.256-90.24-40.576-122.368 9.6-5.504 18.24-12.544 25.6-20.992 25.472-24.64 180.288-206.72 219.136-263.68 38.656-57.216 51.84-103.04 51.84-194.688C1024 32.96 911.936-128 736-128h-384C176.064-128 64 34.112 64 147.84c0 91.584 12.928 138.368 51.84 195.52 38.848 57.216 193.664 236.992 219.136 261.632 7.36 8.448 16.064 15.488 25.6 21.056z"  horiz-adv-x="1024" />

    
    <glyph glyph-name="node-o" unicode="&#59171;" d="M192 768a64 64 0 0 1-64-64v-640a64 64 0 0 1 64-64h640a64 64 0 0 1 64 64V704a64 64 0 0 1-64 64H192z m0 64h640a128 128 0 0 0 128-128v-640a128 128 0 0 0-128-128H192a128 128 0 0 0-128 128V704a128 128 0 0 0 128 128zM256 640l512 0 0-64-512 0 0 64ZM256 192l512 0 0-64-512 0 0 64ZM256 416l512 0 0-64-512 0 0 64Z"  horiz-adv-x="1024" />

    
    <glyph glyph-name="closeFolder-o" unicode="&#59172;" d="M409.984 704H128v-704h768V585.984v7.04H539.328A128 128 0 0 0 417.92 680.32L409.984 704z m129.28-46.912h348.928c24.96 0 34.048-2.56 43.136-7.424a50.624 50.624 0 0 0 21.184-20.992c4.864-8.96 7.488-17.984 7.488-42.688v-578.88c0-24.704-2.56-33.664-7.488-42.752a50.624 50.624 0 0 0-21.12-20.928c-9.152-4.864-18.24-7.424-43.2-7.424H135.808c-24.96 0-34.048 2.56-43.136 7.424a50.624 50.624 0 0 0-21.184 20.928C66.56-26.56 64-17.6 64 7.104V712.512A55.68 55.68 0 0 0 120 768h295.68c24.064 0 45.44-15.296 53.12-37.952l9.856-29.44a64 64 0 0 1 60.672-43.52zM128 448h768v-64H128V448z"  horiz-adv-x="1024" />

    
    <glyph glyph-name="search-o" unicode="&#59173;" d="M610.624 208.128a288 288 0 1 0 45.248 45.248l204.928-204.928a32 32 0 1 0-45.248-45.248L610.56 208.128z m-21.376 66.56a224 224 0 1 1-316.8 316.8 224 224 0 0 1 316.8-316.8z"  horiz-adv-x="1024" />

    
    <glyph glyph-name="openFolder-o" unicode="&#59174;" d="M345.984 704H64v-704h768V585.984v7.04H475.328A128 128 0 0 0 353.92 680.32L345.984 704z m129.28-46.912h348.928c24.96 0 34.048-2.56 43.136-7.424a50.624 50.624 0 0 0 21.184-20.992c4.864-8.96 7.488-17.984 7.488-42.688v-578.88c0-24.704-2.56-33.664-7.488-42.752a50.624 50.624 0 0 0-21.12-20.928c-9.152-4.864-18.24-7.424-43.2-7.424H71.808c-24.96 0-34.048 2.56-43.136 7.424a50.624 50.624 0 0 0-21.184 20.928C2.56-26.56 0-17.6 0 7.104V712.512A55.68 55.68 0 0 0 56 768h295.68c24.064 0 45.44-15.296 53.12-37.952l9.856-29.44a64 64 0 0 1 60.672-43.52zM177.92 384l-96-384h764.16l96 384H177.92z m0 64h764.16a64 64 0 0 0 62.08-79.552l-96-384a64 64 0 0 0-62.08-48.448H81.92a64 64 0 0 0-62.08 79.552l96 384A64 64 0 0 0 177.92 448z"  horiz-adv-x="1024" />

    
    <glyph glyph-name="search" unicode="&#59167;" d="M597.952 143.488A320.128 320.128 0 0 0 195.2 636.8a320 320 0 0 0 493.312-402.752l140.288-140.352a64 64 0 0 0-90.496-90.496l-140.352 140.288z m-40.704 131.2a192 192 0 1 1-271.552 271.616 192 192 0 0 1 271.552-271.552z"  horiz-adv-x="1024" />

    
    <glyph glyph-name="closeFolder" unicode="&#59168;" d="M539.328 657.088h348.864c24.96 0 34.048-2.56 43.136-7.424a50.624 50.624 0 0 0 21.184-20.992c4.864-8.96 7.488-17.984 7.488-42.688v-578.88c0-24.704-2.56-33.664-7.488-42.752a50.624 50.624 0 0 0-21.12-20.928c-9.152-4.864-18.24-7.424-43.2-7.424H135.808c-24.96 0-34.048 2.56-43.136 7.424a50.624 50.624 0 0 0-21.184 20.928C66.56-26.56 64-17.6 64 7.104V712.512A55.68 55.68 0 0 0 120 768h295.68c24.064 0 45.44-15.296 53.12-37.952l9.856-29.44a64 64 0 0 1 60.672-43.52zM128 448v-64h768V448H128z"  horiz-adv-x="1024" />

    
    <glyph glyph-name="node" unicode="&#59169;" d="M192 832h640a128 128 0 0 0 128-128v-640a128 128 0 0 0-128-128H192a128 128 0 0 0-128 128V704a128 128 0 0 0 128 128z m96-192a32 32 0 0 1 0-64h448a32 32 0 1 1 0 64h-448z m0-448a32 32 0 1 1 0-64h448a32 32 0 1 1 0 64h-448z m0 224a32 32 0 0 1 0-64h448a32 32 0 1 1 0 64h-448z"  horiz-adv-x="1024" />

    
    <glyph glyph-name="openFolder" unicode="&#59170;" d="M896 576H177.92c-29.312 0-54.912-24.96-62.08-60.608l-96-480c-1.28-6.336-1.92-12.8-1.92-19.392 0-44.16 28.672-80 64-80h-10.112c-24.96 0-34.048 2.56-43.136 7.424a50.624 50.624 0 0 0-21.184 20.928C2.56-26.56 0-17.6 0 7.104V712.512A55.68 55.68 0 0 0 56 768h295.68c24.064 0 45.44-15.296 53.12-37.952l9.856-29.44a64 64 0 0 1 60.672-43.52h348.864c24.96 0 34.048-2.56 43.136-7.424a50.624 50.624 0 0 0 21.184-20.992c4.864-8.96 7.488-17.984 7.488-42.688V576zM173.44 448h742.4c34.304 0 62.08-28.672 62.08-64 0-5.248-0.576-10.432-1.792-15.552l-93.312-384a62.528 62.528 0 0 0-60.288-48.448h-742.4c-34.304 0-62.144 28.672-62.144 64 0 5.248 0.64 10.432 1.856 15.552l93.248 384A62.528 62.528 0 0 0 173.44 448z"  horiz-adv-x="1024" />

    
    <glyph glyph-name="drag-o" unicode="&#59175;" d="M384 704a64 64 0 1 0 0 128 64 64 0 0 0 0-128z m320 0a64 64 0 1 0 0 128 64 64 0 0 0 0-128zM384 448a64 64 0 1 0 0 128 64 64 0 0 0 0-128z m320 0a64 64 0 1 0 0 128 64 64 0 0 0 0-128z m-320-256a64 64 0 1 0 0 128 64 64 0 0 0 0-128z m320 0a64 64 0 1 0 0 128 64 64 0 0 0 0-128z m-320-256a64 64 0 1 0 0 128 64 64 0 0 0 0-128z m320 0a64 64 0 1 0 0 128 64 64 0 0 0 0-128z"  horiz-adv-x="1024" />

    
    <glyph glyph-name="drag" unicode="&#59176;" d="M352 640a96 96 0 1 0 0 192 96 96 0 0 0 0-192z m320 0a96 96 0 1 0 0 192 96 96 0 0 0 0-192z m-320-256a96 96 0 1 0 0 192 96 96 0 0 0 0-192z m320 0a96 96 0 1 0 0 192 96 96 0 0 0 0-192z m-320-256a96 96 0 1 0 0 192 96 96 0 0 0 0-192z m320 0a96 96 0 1 0 0 192 96 96 0 0 0 0-192z m-320-256a96 96 0 1 0 0 192 96 96 0 0 0 0-192z m320 0a96 96 0 1 0 0 192 96 96 0 0 0 0-192z"  horiz-adv-x="1024" />

    
    <glyph glyph-name="question" unicode="&#59178;" d="M512-128A512 512 0 1 0 512 896a512 512 0 0 0 0-1024z m6.912 815.104c-55.296 0-98.304-16.896-129.024-50.688-30.72-32.256-45.312-75.264-45.312-129.024h60.672c0 37.632 8.448 66.816 25.344 88.32 18.432 25.344 46.848 37.632 85.248 37.632 32.256 0 57.6-8.448 75.264-26.88 16.896-16.896 26.112-40.704 26.112-71.424 0-21.504-7.68-41.472-23.04-60.672a340.48 340.48 0 0 0-26.112-27.648c-41.472-36.864-66.816-66.048-77.568-89.088-9.216-19.2-13.824-41.472-13.824-66.816v-17.664h61.44v17.664c0 20.736 4.608 39.168 14.592 56.064 7.68 13.824 19.2 27.648 36.096 42.24 33.792 29.952 54.528 49.92 62.208 59.136 19.2 25.344 29.184 55.296 29.184 89.856 0 46.08-14.592 82.176-43.008 108.288-29.952 27.648-69.12 40.704-118.272 40.704z m-11.52-467.712a43.968 43.968 0 0 1-33.024-13.056 41.216 41.216 0 0 1-13.056-32.256c0-13.056 3.84-23.808 13.056-33.024a47.104 47.104 0 0 1 33.024-13.056 47.104 47.104 0 0 1 33.024 13.056 42.368 42.368 0 0 1 13.824 33.024 43.968 43.968 0 0 1-13.056 32.256 45.696 45.696 0 0 1-33.792 13.056z"  horiz-adv-x="1024" />

    
    <glyph glyph-name="question_o" unicode="&#59177;" d="M512-64A448 448 0 1 1 512 832a448 448 0 0 1 0-896z m0-64A512 512 0 1 0 512 896a512 512 0 0 0 0-1024z m6.912 815.104c-55.296 0-98.304-16.896-129.024-50.688-30.72-32.256-45.312-75.264-45.312-129.024h60.672c0 37.632 8.448 66.816 25.344 88.32 18.432 25.344 46.848 37.632 85.248 37.632 32.256 0 57.6-8.448 75.264-26.88 16.896-16.896 26.112-40.704 26.112-71.424 0-21.504-7.68-41.472-23.04-60.672a340.48 340.48 0 0 0-26.112-27.648c-41.472-36.864-66.816-66.048-77.568-89.088-9.216-19.2-13.824-41.472-13.824-66.816v-17.664h61.44v17.664c0 20.736 4.608 39.168 14.592 56.064 7.68 13.824 19.2 27.648 36.096 42.24 33.792 29.952 54.528 49.92 62.208 59.136 19.2 25.344 29.184 55.296 29.184 89.856 0 46.08-14.592 82.176-43.008 108.288-29.952 27.648-69.12 40.704-118.272 40.704z m-11.52-467.712a43.968 43.968 0 0 1-33.024-13.056 41.216 41.216 0 0 1-13.056-32.256c0-13.056 3.84-23.808 13.056-33.024a47.104 47.104 0 0 1 33.024-13.056 47.104 47.104 0 0 1 33.024 13.056 42.368 42.368 0 0 1 13.824 33.024 43.968 43.968 0 0 1-13.056 32.256 45.696 45.696 0 0 1-33.792 13.056z"  horiz-adv-x="1024" />

    
    <glyph glyph-name="dragPointer" unicode="&#59179;" d="M918 384c0-7.8-2.9-14.7-8.6-20.4l-116-116.1c-5.7-5.7-12.6-8.6-20.4-8.6-7.8 0-14.7 2.9-20.4 8.6-5.7 5.7-8.6 12.5-8.6 20.4v58H570v-174h58c7.8 0 14.7-2.9 20.4-8.6s8.6-12.6 8.6-20.4-2.9-14.7-8.6-20.4l-116.1-116c-5.7-5.7-12.6-8.6-20.4-8.6-7.8 0-14.7 2.9-20.4 8.6l-116 116c-5.7 5.7-8.6 12.5-8.6 20.4 0 7.8 2.9 14.7 8.6 20.4 5.7 5.7 12.5 8.6 20.4 8.6h58V326H280v-58c0-7.8-2.9-14.7-8.6-20.4-5.7-5.7-12.6-8.6-20.4-8.6-7.8 0-14.7 2.9-20.4 8.6l-116 116.1c-5.7 5.7-8.6 12.5-8.6 20.4 0 7.8 2.9 14.7 8.6 20.4l116 116c5.7 5.7 12.5 8.6 20.4 8.6 7.8 0 14.7-2.9 20.4-8.6 5.7-5.7 8.6-12.6 8.6-20.4v-58h174V616h-58c-7.8 0-14.7 2.9-20.4 8.6-5.7 5.7-8.6 12.5-8.6 20.4 0 7.8 2.9 14.7 8.6 20.4l116 116c5.7 5.7 12.5 8.6 20.4 8.6 7.8 0 14.7-2.9 20.4-8.6l116-116c5.7-5.7 8.6-12.6 8.6-20.4 0-7.8-2.9-14.7-8.6-20.4-5.7-5.7-12.6-8.6-20.4-8.6h-58v-174h174v58c0 7.8 2.9 14.7 8.6 20.4 5.7 5.7 12.5 8.6 20.4 8.6 7.8 0 14.7-2.9 20.4-8.6l116.2-116c5.5-5.8 8.4-12.5 8.4-20.4z"  horiz-adv-x="1024" />

    
    <glyph glyph-name="arrowDown" unicode="&#59180;" d="M64.302515 424.850383L511.998977-25.308152999999947 959.697485 424.850383 696.208419 424.850383 696.208419 793.308153 327.792605 793.308153 327.792605 424.850383Z"  horiz-adv-x="1024" />

    


  </font>
</defs>
</svg>
